<?xml version="1.0" encoding="utf-8" standalone="no"?>
<!DOCTYPE svg PUBLIC "-//W3C//DTD SVG 1.1//EN"
  "http://www.w3.org/Graphics/SVG/1.1/DTD/svg11.dtd">
<!-- Created with matplotlib (https://matplotlib.org/) -->
<svg height="720pt" version="1.1" viewBox="0 0 1440 720" width="1440pt" xmlns="http://www.w3.org/2000/svg" xmlns:xlink="http://www.w3.org/1999/xlink">
 <defs>
  <style type="text/css">
*{stroke-linecap:butt;stroke-linejoin:round;}
  </style>
 </defs>
 <g id="figure_1">
  <g id="patch_1">
   <path d="M 0 720 
L 1440 720 
L 1440 0 
L 0 0 
z
" style="fill:#ffffff;"/>
  </g>
  <g id="axes_1">
   <g id="patch_2">
    <path d="M 180 630 
L 1296 630 
L 1296 86.4 
L 180 86.4 
z
" style="fill:#778899;"/>
   </g>
   <g id="matplotlib.axis_1">
    <g id="xtick_1">
     <g id="line2d_1">
      <defs>
       <path d="M 0 0 
L 0 3.5 
" id="mc14dbd3f6b" style="stroke:#000000;stroke-width:0.8;"/>
      </defs>
      <g>
       <use style="stroke:#000000;stroke-width:0.8;" x="237.091243" xlink:href="#mc14dbd3f6b" y="630"/>
      </g>
     </g>
     <g id="text_1">
      <!-- 1958-01 -->
      <defs>
       <path d="M 12.40625 8.296875 
L 28.515625 8.296875 
L 28.515625 63.921875 
L 10.984375 60.40625 
L 10.984375 69.390625 
L 28.421875 72.90625 
L 38.28125 72.90625 
L 38.28125 8.296875 
L 54.390625 8.296875 
L 54.390625 0 
L 12.40625 0 
z
" id="DejaVuSans-49"/>
       <path d="M 10.984375 1.515625 
L 10.984375 10.5 
Q 14.703125 8.734375 18.5 7.8125 
Q 22.3125 6.890625 25.984375 6.890625 
Q 35.75 6.890625 40.890625 13.453125 
Q 46.046875 20.015625 46.78125 33.40625 
Q 43.953125 29.203125 39.59375 26.953125 
Q 35.25 24.703125 29.984375 24.703125 
Q 19.046875 24.703125 12.671875 31.3125 
Q 6.296875 37.9375 6.296875 49.421875 
Q 6.296875 60.640625 12.9375 67.421875 
Q 19.578125 74.21875 30.609375 74.21875 
Q 43.265625 74.21875 49.921875 64.515625 
Q 56.59375 54.828125 56.59375 36.375 
Q 56.59375 19.140625 48.40625 8.859375 
Q 40.234375 -1.421875 26.421875 -1.421875 
Q 22.703125 -1.421875 18.890625 -0.6875 
Q 15.09375 0.046875 10.984375 1.515625 
z
M 30.609375 32.421875 
Q 37.25 32.421875 41.125 36.953125 
Q 45.015625 41.5 45.015625 49.421875 
Q 45.015625 57.28125 41.125 61.84375 
Q 37.25 66.40625 30.609375 66.40625 
Q 23.96875 66.40625 20.09375 61.84375 
Q 16.21875 57.28125 16.21875 49.421875 
Q 16.21875 41.5 20.09375 36.953125 
Q 23.96875 32.421875 30.609375 32.421875 
z
" id="DejaVuSans-57"/>
       <path d="M 10.796875 72.90625 
L 49.515625 72.90625 
L 49.515625 64.59375 
L 19.828125 64.59375 
L 19.828125 46.734375 
Q 21.96875 47.46875 24.109375 47.828125 
Q 26.265625 48.1875 28.421875 48.1875 
Q 40.625 48.1875 47.75 41.5 
Q 54.890625 34.8125 54.890625 23.390625 
Q 54.890625 11.625 47.5625 5.09375 
Q 40.234375 -1.421875 26.90625 -1.421875 
Q 22.3125 -1.421875 17.546875 -0.640625 
Q 12.796875 0.140625 7.71875 1.703125 
L 7.71875 11.625 
Q 12.109375 9.234375 16.796875 8.0625 
Q 21.484375 6.890625 26.703125 6.890625 
Q 35.15625 6.890625 40.078125 11.328125 
Q 45.015625 15.765625 45.015625 23.390625 
Q 45.015625 31 40.078125 35.4375 
Q 35.15625 39.890625 26.703125 39.890625 
Q 22.75 39.890625 18.8125 39.015625 
Q 14.890625 38.140625 10.796875 36.28125 
z
" id="DejaVuSans-53"/>
       <path d="M 31.78125 34.625 
Q 24.75 34.625 20.71875 30.859375 
Q 16.703125 27.09375 16.703125 20.515625 
Q 16.703125 13.921875 20.71875 10.15625 
Q 24.75 6.390625 31.78125 6.390625 
Q 38.8125 6.390625 42.859375 10.171875 
Q 46.921875 13.96875 46.921875 20.515625 
Q 46.921875 27.09375 42.890625 30.859375 
Q 38.875 34.625 31.78125 34.625 
z
M 21.921875 38.8125 
Q 15.578125 40.375 12.03125 44.71875 
Q 8.5 49.078125 8.5 55.328125 
Q 8.5 64.0625 14.71875 69.140625 
Q 20.953125 74.21875 31.78125 74.21875 
Q 42.671875 74.21875 48.875 69.140625 
Q 55.078125 64.0625 55.078125 55.328125 
Q 55.078125 49.078125 51.53125 44.71875 
Q 48 40.375 41.703125 38.8125 
Q 48.828125 37.15625 52.796875 32.3125 
Q 56.78125 27.484375 56.78125 20.515625 
Q 56.78125 9.90625 50.3125 4.234375 
Q 43.84375 -1.421875 31.78125 -1.421875 
Q 19.734375 -1.421875 13.25 4.234375 
Q 6.78125 9.90625 6.78125 20.515625 
Q 6.78125 27.484375 10.78125 32.3125 
Q 14.796875 37.15625 21.921875 38.8125 
z
M 18.3125 54.390625 
Q 18.3125 48.734375 21.84375 45.5625 
Q 25.390625 42.390625 31.78125 42.390625 
Q 38.140625 42.390625 41.71875 45.5625 
Q 45.3125 48.734375 45.3125 54.390625 
Q 45.3125 60.0625 41.71875 63.234375 
Q 38.140625 66.40625 31.78125 66.40625 
Q 25.390625 66.40625 21.84375 63.234375 
Q 18.3125 60.0625 18.3125 54.390625 
z
" id="DejaVuSans-56"/>
       <path d="M 4.890625 31.390625 
L 31.203125 31.390625 
L 31.203125 23.390625 
L 4.890625 23.390625 
z
" id="DejaVuSans-45"/>
       <path d="M 31.78125 66.40625 
Q 24.171875 66.40625 20.328125 58.90625 
Q 16.5 51.421875 16.5 36.375 
Q 16.5 21.390625 20.328125 13.890625 
Q 24.171875 6.390625 31.78125 6.390625 
Q 39.453125 6.390625 43.28125 13.890625 
Q 47.125 21.390625 47.125 36.375 
Q 47.125 51.421875 43.28125 58.90625 
Q 39.453125 66.40625 31.78125 66.40625 
z
M 31.78125 74.21875 
Q 44.046875 74.21875 50.515625 64.515625 
Q 56.984375 54.828125 56.984375 36.375 
Q 56.984375 17.96875 50.515625 8.265625 
Q 44.046875 -1.421875 31.78125 -1.421875 
Q 19.53125 -1.421875 13.0625 8.265625 
Q 6.59375 17.96875 6.59375 36.375 
Q 6.59375 54.828125 13.0625 64.515625 
Q 19.53125 74.21875 31.78125 74.21875 
z
" id="DejaVuSans-48"/>
      </defs>
      <g transform="translate(216.199837 644.598438)scale(0.1 -0.1)">
       <use xlink:href="#DejaVuSans-49"/>
       <use x="63.623047" xlink:href="#DejaVuSans-57"/>
       <use x="127.246094" xlink:href="#DejaVuSans-53"/>
       <use x="190.869141" xlink:href="#DejaVuSans-56"/>
       <use x="254.492188" xlink:href="#DejaVuSans-45"/>
       <use x="290.576172" xlink:href="#DejaVuSans-48"/>
       <use x="354.199219" xlink:href="#DejaVuSans-49"/>
      </g>
     </g>
    </g>
    <g id="xtick_2">
     <g id="line2d_2">
      <g>
       <use style="stroke:#000000;stroke-width:0.8;" x="334.815395" xlink:href="#mc14dbd3f6b" y="630"/>
      </g>
     </g>
     <g id="text_2">
      <!-- 1964-01 -->
      <defs>
       <path d="M 33.015625 40.375 
Q 26.375 40.375 22.484375 35.828125 
Q 18.609375 31.296875 18.609375 23.390625 
Q 18.609375 15.53125 22.484375 10.953125 
Q 26.375 6.390625 33.015625 6.390625 
Q 39.65625 6.390625 43.53125 10.953125 
Q 47.40625 15.53125 47.40625 23.390625 
Q 47.40625 31.296875 43.53125 35.828125 
Q 39.65625 40.375 33.015625 40.375 
z
M 52.59375 71.296875 
L 52.59375 62.3125 
Q 48.875 64.0625 45.09375 64.984375 
Q 41.3125 65.921875 37.59375 65.921875 
Q 27.828125 65.921875 22.671875 59.328125 
Q 17.53125 52.734375 16.796875 39.40625 
Q 19.671875 43.65625 24.015625 45.921875 
Q 28.375 48.1875 33.59375 48.1875 
Q 44.578125 48.1875 50.953125 41.515625 
Q 57.328125 34.859375 57.328125 23.390625 
Q 57.328125 12.15625 50.6875 5.359375 
Q 44.046875 -1.421875 33.015625 -1.421875 
Q 20.359375 -1.421875 13.671875 8.265625 
Q 6.984375 17.96875 6.984375 36.375 
Q 6.984375 53.65625 15.1875 63.9375 
Q 23.390625 74.21875 37.203125 74.21875 
Q 40.921875 74.21875 44.703125 73.484375 
Q 48.484375 72.75 52.59375 71.296875 
z
" id="DejaVuSans-54"/>
       <path d="M 37.796875 64.3125 
L 12.890625 25.390625 
L 37.796875 25.390625 
z
M 35.203125 72.90625 
L 47.609375 72.90625 
L 47.609375 25.390625 
L 58.015625 25.390625 
L 58.015625 17.1875 
L 47.609375 17.1875 
L 47.609375 0 
L 37.796875 0 
L 37.796875 17.1875 
L 4.890625 17.1875 
L 4.890625 26.703125 
z
" id="DejaVuSans-52"/>
      </defs>
      <g transform="translate(313.923989 644.598438)scale(0.1 -0.1)">
       <use xlink:href="#DejaVuSans-49"/>
       <use x="63.623047" xlink:href="#DejaVuSans-57"/>
       <use x="127.246094" xlink:href="#DejaVuSans-54"/>
       <use x="190.869141" xlink:href="#DejaVuSans-52"/>
       <use x="254.492188" xlink:href="#DejaVuSans-45"/>
       <use x="290.576172" xlink:href="#DejaVuSans-48"/>
       <use x="354.199219" xlink:href="#DejaVuSans-49"/>
      </g>
     </g>
    </g>
    <g id="xtick_3">
     <g id="line2d_3">
      <g>
       <use style="stroke:#000000;stroke-width:0.8;" x="432.584149" xlink:href="#mc14dbd3f6b" y="630"/>
      </g>
     </g>
     <g id="text_3">
      <!-- 1970-01 -->
      <defs>
       <path d="M 8.203125 72.90625 
L 55.078125 72.90625 
L 55.078125 68.703125 
L 28.609375 0 
L 18.3125 0 
L 43.21875 64.59375 
L 8.203125 64.59375 
z
" id="DejaVuSans-55"/>
      </defs>
      <g transform="translate(411.692743 644.598438)scale(0.1 -0.1)">
       <use xlink:href="#DejaVuSans-49"/>
       <use x="63.623047" xlink:href="#DejaVuSans-57"/>
       <use x="127.246094" xlink:href="#DejaVuSans-55"/>
       <use x="190.869141" xlink:href="#DejaVuSans-48"/>
       <use x="254.492188" xlink:href="#DejaVuSans-45"/>
       <use x="290.576172" xlink:href="#DejaVuSans-48"/>
       <use x="354.199219" xlink:href="#DejaVuSans-49"/>
      </g>
     </g>
    </g>
    <g id="xtick_4">
     <g id="line2d_4">
      <g>
       <use style="stroke:#000000;stroke-width:0.8;" x="530.308301" xlink:href="#mc14dbd3f6b" y="630"/>
      </g>
     </g>
     <g id="text_4">
      <!-- 1976-01 -->
      <g transform="translate(509.416895 644.598438)scale(0.1 -0.1)">
       <use xlink:href="#DejaVuSans-49"/>
       <use x="63.623047" xlink:href="#DejaVuSans-57"/>
       <use x="127.246094" xlink:href="#DejaVuSans-55"/>
       <use x="190.869141" xlink:href="#DejaVuSans-54"/>
       <use x="254.492188" xlink:href="#DejaVuSans-45"/>
       <use x="290.576172" xlink:href="#DejaVuSans-48"/>
       <use x="354.199219" xlink:href="#DejaVuSans-49"/>
      </g>
     </g>
    </g>
    <g id="xtick_5">
     <g id="line2d_5">
      <g>
       <use style="stroke:#000000;stroke-width:0.8;" x="628.077055" xlink:href="#mc14dbd3f6b" y="630"/>
      </g>
     </g>
     <g id="text_5">
      <!-- 1982-01 -->
      <defs>
       <path d="M 19.1875 8.296875 
L 53.609375 8.296875 
L 53.609375 0 
L 7.328125 0 
L 7.328125 8.296875 
Q 12.9375 14.109375 22.625 23.890625 
Q 32.328125 33.6875 34.8125 36.53125 
Q 39.546875 41.84375 41.421875 45.53125 
Q 43.3125 49.21875 43.3125 52.78125 
Q 43.3125 58.59375 39.234375 62.25 
Q 35.15625 65.921875 28.609375 65.921875 
Q 23.96875 65.921875 18.8125 64.3125 
Q 13.671875 62.703125 7.8125 59.421875 
L 7.8125 69.390625 
Q 13.765625 71.78125 18.9375 73 
Q 24.125 74.21875 28.421875 74.21875 
Q 39.75 74.21875 46.484375 68.546875 
Q 53.21875 62.890625 53.21875 53.421875 
Q 53.21875 48.921875 51.53125 44.890625 
Q 49.859375 40.875 45.40625 35.40625 
Q 44.1875 33.984375 37.640625 27.21875 
Q 31.109375 20.453125 19.1875 8.296875 
z
" id="DejaVuSans-50"/>
      </defs>
      <g transform="translate(607.185649 644.598438)scale(0.1 -0.1)">
       <use xlink:href="#DejaVuSans-49"/>
       <use x="63.623047" xlink:href="#DejaVuSans-57"/>
       <use x="127.246094" xlink:href="#DejaVuSans-56"/>
       <use x="190.869141" xlink:href="#DejaVuSans-50"/>
       <use x="254.492188" xlink:href="#DejaVuSans-45"/>
       <use x="290.576172" xlink:href="#DejaVuSans-48"/>
       <use x="354.199219" xlink:href="#DejaVuSans-49"/>
      </g>
     </g>
    </g>
    <g id="xtick_6">
     <g id="line2d_6">
      <g>
       <use style="stroke:#000000;stroke-width:0.8;" x="725.801207" xlink:href="#mc14dbd3f6b" y="630"/>
      </g>
     </g>
     <g id="text_6">
      <!-- 1988-01 -->
      <g transform="translate(704.909801 644.598438)scale(0.1 -0.1)">
       <use xlink:href="#DejaVuSans-49"/>
       <use x="63.623047" xlink:href="#DejaVuSans-57"/>
       <use x="127.246094" xlink:href="#DejaVuSans-56"/>
       <use x="190.869141" xlink:href="#DejaVuSans-56"/>
       <use x="254.492188" xlink:href="#DejaVuSans-45"/>
       <use x="290.576172" xlink:href="#DejaVuSans-48"/>
       <use x="354.199219" xlink:href="#DejaVuSans-49"/>
      </g>
     </g>
    </g>
    <g id="xtick_7">
     <g id="line2d_7">
      <g>
       <use style="stroke:#000000;stroke-width:0.8;" x="823.569961" xlink:href="#mc14dbd3f6b" y="630"/>
      </g>
     </g>
     <g id="text_7">
      <!-- 1994-01 -->
      <g transform="translate(802.678555 644.598438)scale(0.1 -0.1)">
       <use xlink:href="#DejaVuSans-49"/>
       <use x="63.623047" xlink:href="#DejaVuSans-57"/>
       <use x="127.246094" xlink:href="#DejaVuSans-57"/>
       <use x="190.869141" xlink:href="#DejaVuSans-52"/>
       <use x="254.492188" xlink:href="#DejaVuSans-45"/>
       <use x="290.576172" xlink:href="#DejaVuSans-48"/>
       <use x="354.199219" xlink:href="#DejaVuSans-49"/>
      </g>
     </g>
    </g>
    <g id="xtick_8">
     <g id="line2d_8">
      <g>
       <use style="stroke:#000000;stroke-width:0.8;" x="921.294113" xlink:href="#mc14dbd3f6b" y="630"/>
      </g>
     </g>
     <g id="text_8">
      <!-- 2000-01 -->
      <g transform="translate(900.402707 644.598438)scale(0.1 -0.1)">
       <use xlink:href="#DejaVuSans-50"/>
       <use x="63.623047" xlink:href="#DejaVuSans-48"/>
       <use x="127.246094" xlink:href="#DejaVuSans-48"/>
       <use x="190.869141" xlink:href="#DejaVuSans-48"/>
       <use x="254.492188" xlink:href="#DejaVuSans-45"/>
       <use x="290.576172" xlink:href="#DejaVuSans-48"/>
       <use x="354.199219" xlink:href="#DejaVuSans-49"/>
      </g>
     </g>
    </g>
    <g id="xtick_9">
     <g id="line2d_9">
      <g>
       <use style="stroke:#000000;stroke-width:0.8;" x="1019.062867" xlink:href="#mc14dbd3f6b" y="630"/>
      </g>
     </g>
     <g id="text_9">
      <!-- 2006-01 -->
      <g transform="translate(998.171461 644.598438)scale(0.1 -0.1)">
       <use xlink:href="#DejaVuSans-50"/>
       <use x="63.623047" xlink:href="#DejaVuSans-48"/>
       <use x="127.246094" xlink:href="#DejaVuSans-48"/>
       <use x="190.869141" xlink:href="#DejaVuSans-54"/>
       <use x="254.492188" xlink:href="#DejaVuSans-45"/>
       <use x="290.576172" xlink:href="#DejaVuSans-48"/>
       <use x="354.199219" xlink:href="#DejaVuSans-49"/>
      </g>
     </g>
    </g>
    <g id="xtick_10">
     <g id="line2d_10">
      <g>
       <use style="stroke:#000000;stroke-width:0.8;" x="1116.787019" xlink:href="#mc14dbd3f6b" y="630"/>
      </g>
     </g>
     <g id="text_10">
      <!-- 2012-01 -->
      <g transform="translate(1095.895613 644.598438)scale(0.1 -0.1)">
       <use xlink:href="#DejaVuSans-50"/>
       <use x="63.623047" xlink:href="#DejaVuSans-48"/>
       <use x="127.246094" xlink:href="#DejaVuSans-49"/>
       <use x="190.869141" xlink:href="#DejaVuSans-50"/>
       <use x="254.492188" xlink:href="#DejaVuSans-45"/>
       <use x="290.576172" xlink:href="#DejaVuSans-48"/>
       <use x="354.199219" xlink:href="#DejaVuSans-49"/>
      </g>
     </g>
    </g>
    <g id="xtick_11">
     <g id="line2d_11">
      <g>
       <use style="stroke:#000000;stroke-width:0.8;" x="1214.555773" xlink:href="#mc14dbd3f6b" y="630"/>
      </g>
     </g>
     <g id="text_11">
      <!-- 2018-01 -->
      <g transform="translate(1193.664367 644.598438)scale(0.1 -0.1)">
       <use xlink:href="#DejaVuSans-50"/>
       <use x="63.623047" xlink:href="#DejaVuSans-48"/>
       <use x="127.246094" xlink:href="#DejaVuSans-49"/>
       <use x="190.869141" xlink:href="#DejaVuSans-56"/>
       <use x="254.492188" xlink:href="#DejaVuSans-45"/>
       <use x="290.576172" xlink:href="#DejaVuSans-48"/>
       <use x="354.199219" xlink:href="#DejaVuSans-49"/>
      </g>
     </g>
    </g>
    <g id="text_12">
     <!-- Date by Month -->
     <defs>
      <path d="M 19.671875 64.796875 
L 19.671875 8.109375 
L 31.59375 8.109375 
Q 46.6875 8.109375 53.6875 14.9375 
Q 60.6875 21.78125 60.6875 36.53125 
Q 60.6875 51.171875 53.6875 57.984375 
Q 46.6875 64.796875 31.59375 64.796875 
z
M 9.8125 72.90625 
L 30.078125 72.90625 
Q 51.265625 72.90625 61.171875 64.09375 
Q 71.09375 55.28125 71.09375 36.53125 
Q 71.09375 17.671875 61.125 8.828125 
Q 51.171875 0 30.078125 0 
L 9.8125 0 
z
" id="DejaVuSans-68"/>
      <path d="M 34.28125 27.484375 
Q 23.390625 27.484375 19.1875 25 
Q 14.984375 22.515625 14.984375 16.5 
Q 14.984375 11.71875 18.140625 8.90625 
Q 21.296875 6.109375 26.703125 6.109375 
Q 34.1875 6.109375 38.703125 11.40625 
Q 43.21875 16.703125 43.21875 25.484375 
L 43.21875 27.484375 
z
M 52.203125 31.203125 
L 52.203125 0 
L 43.21875 0 
L 43.21875 8.296875 
Q 40.140625 3.328125 35.546875 0.953125 
Q 30.953125 -1.421875 24.3125 -1.421875 
Q 15.921875 -1.421875 10.953125 3.296875 
Q 6 8.015625 6 15.921875 
Q 6 25.140625 12.171875 29.828125 
Q 18.359375 34.515625 30.609375 34.515625 
L 43.21875 34.515625 
L 43.21875 35.40625 
Q 43.21875 41.609375 39.140625 45 
Q 35.0625 48.390625 27.6875 48.390625 
Q 23 48.390625 18.546875 47.265625 
Q 14.109375 46.140625 10.015625 43.890625 
L 10.015625 52.203125 
Q 14.9375 54.109375 19.578125 55.046875 
Q 24.21875 56 28.609375 56 
Q 40.484375 56 46.34375 49.84375 
Q 52.203125 43.703125 52.203125 31.203125 
z
" id="DejaVuSans-97"/>
      <path d="M 18.3125 70.21875 
L 18.3125 54.6875 
L 36.8125 54.6875 
L 36.8125 47.703125 
L 18.3125 47.703125 
L 18.3125 18.015625 
Q 18.3125 11.328125 20.140625 9.421875 
Q 21.96875 7.515625 27.59375 7.515625 
L 36.8125 7.515625 
L 36.8125 0 
L 27.59375 0 
Q 17.1875 0 13.234375 3.875 
Q 9.28125 7.765625 9.28125 18.015625 
L 9.28125 47.703125 
L 2.6875 47.703125 
L 2.6875 54.6875 
L 9.28125 54.6875 
L 9.28125 70.21875 
z
" id="DejaVuSans-116"/>
      <path d="M 56.203125 29.59375 
L 56.203125 25.203125 
L 14.890625 25.203125 
Q 15.484375 15.921875 20.484375 11.0625 
Q 25.484375 6.203125 34.421875 6.203125 
Q 39.59375 6.203125 44.453125 7.46875 
Q 49.3125 8.734375 54.109375 11.28125 
L 54.109375 2.78125 
Q 49.265625 0.734375 44.1875 -0.34375 
Q 39.109375 -1.421875 33.890625 -1.421875 
Q 20.796875 -1.421875 13.15625 6.1875 
Q 5.515625 13.8125 5.515625 26.8125 
Q 5.515625 40.234375 12.765625 48.109375 
Q 20.015625 56 32.328125 56 
Q 43.359375 56 49.78125 48.890625 
Q 56.203125 41.796875 56.203125 29.59375 
z
M 47.21875 32.234375 
Q 47.125 39.59375 43.09375 43.984375 
Q 39.0625 48.390625 32.421875 48.390625 
Q 24.90625 48.390625 20.390625 44.140625 
Q 15.875 39.890625 15.1875 32.171875 
z
" id="DejaVuSans-101"/>
      <path id="DejaVuSans-32"/>
      <path d="M 48.6875 27.296875 
Q 48.6875 37.203125 44.609375 42.84375 
Q 40.53125 48.484375 33.40625 48.484375 
Q 26.265625 48.484375 22.1875 42.84375 
Q 18.109375 37.203125 18.109375 27.296875 
Q 18.109375 17.390625 22.1875 11.75 
Q 26.265625 6.109375 33.40625 6.109375 
Q 40.53125 6.109375 44.609375 11.75 
Q 48.6875 17.390625 48.6875 27.296875 
z
M 18.109375 46.390625 
Q 20.953125 51.265625 25.265625 53.625 
Q 29.59375 56 35.59375 56 
Q 45.5625 56 51.78125 48.09375 
Q 58.015625 40.1875 58.015625 27.296875 
Q 58.015625 14.40625 51.78125 6.484375 
Q 45.5625 -1.421875 35.59375 -1.421875 
Q 29.59375 -1.421875 25.265625 0.953125 
Q 20.953125 3.328125 18.109375 8.203125 
L 18.109375 0 
L 9.078125 0 
L 9.078125 75.984375 
L 18.109375 75.984375 
z
" id="DejaVuSans-98"/>
      <path d="M 32.171875 -5.078125 
Q 28.375 -14.84375 24.75 -17.8125 
Q 21.140625 -20.796875 15.09375 -20.796875 
L 7.90625 -20.796875 
L 7.90625 -13.28125 
L 13.1875 -13.28125 
Q 16.890625 -13.28125 18.9375 -11.515625 
Q 21 -9.765625 23.484375 -3.21875 
L 25.09375 0.875 
L 2.984375 54.6875 
L 12.5 54.6875 
L 29.59375 11.921875 
L 46.6875 54.6875 
L 56.203125 54.6875 
z
" id="DejaVuSans-121"/>
      <path d="M 9.8125 72.90625 
L 24.515625 72.90625 
L 43.109375 23.296875 
L 61.8125 72.90625 
L 76.515625 72.90625 
L 76.515625 0 
L 66.890625 0 
L 66.890625 64.015625 
L 48.09375 14.015625 
L 38.1875 14.015625 
L 19.390625 64.015625 
L 19.390625 0 
L 9.8125 0 
z
" id="DejaVuSans-77"/>
      <path d="M 30.609375 48.390625 
Q 23.390625 48.390625 19.1875 42.75 
Q 14.984375 37.109375 14.984375 27.296875 
Q 14.984375 17.484375 19.15625 11.84375 
Q 23.34375 6.203125 30.609375 6.203125 
Q 37.796875 6.203125 41.984375 11.859375 
Q 46.1875 17.53125 46.1875 27.296875 
Q 46.1875 37.015625 41.984375 42.703125 
Q 37.796875 48.390625 30.609375 48.390625 
z
M 30.609375 56 
Q 42.328125 56 49.015625 48.375 
Q 55.71875 40.765625 55.71875 27.296875 
Q 55.71875 13.875 49.015625 6.21875 
Q 42.328125 -1.421875 30.609375 -1.421875 
Q 18.84375 -1.421875 12.171875 6.21875 
Q 5.515625 13.875 5.515625 27.296875 
Q 5.515625 40.765625 12.171875 48.375 
Q 18.84375 56 30.609375 56 
z
" id="DejaVuSans-111"/>
      <path d="M 54.890625 33.015625 
L 54.890625 0 
L 45.90625 0 
L 45.90625 32.71875 
Q 45.90625 40.484375 42.875 44.328125 
Q 39.84375 48.1875 33.796875 48.1875 
Q 26.515625 48.1875 22.3125 43.546875 
Q 18.109375 38.921875 18.109375 30.90625 
L 18.109375 0 
L 9.078125 0 
L 9.078125 54.6875 
L 18.109375 54.6875 
L 18.109375 46.1875 
Q 21.34375 51.125 25.703125 53.5625 
Q 30.078125 56 35.796875 56 
Q 45.21875 56 50.046875 50.171875 
Q 54.890625 44.34375 54.890625 33.015625 
z
" id="DejaVuSans-110"/>
      <path d="M 54.890625 33.015625 
L 54.890625 0 
L 45.90625 0 
L 45.90625 32.71875 
Q 45.90625 40.484375 42.875 44.328125 
Q 39.84375 48.1875 33.796875 48.1875 
Q 26.515625 48.1875 22.3125 43.546875 
Q 18.109375 38.921875 18.109375 30.90625 
L 18.109375 0 
L 9.078125 0 
L 9.078125 75.984375 
L 18.109375 75.984375 
L 18.109375 46.1875 
Q 21.34375 51.125 25.703125 53.5625 
Q 30.078125 56 35.796875 56 
Q 45.21875 56 50.046875 50.171875 
Q 54.890625 44.34375 54.890625 33.015625 
z
" id="DejaVuSans-104"/>
     </defs>
     <g transform="translate(701.066406 658.276562)scale(0.1 -0.1)">
      <use xlink:href="#DejaVuSans-68"/>
      <use x="77.001953" xlink:href="#DejaVuSans-97"/>
      <use x="138.28125" xlink:href="#DejaVuSans-116"/>
      <use x="177.490234" xlink:href="#DejaVuSans-101"/>
      <use x="239.013672" xlink:href="#DejaVuSans-32"/>
      <use x="270.800781" xlink:href="#DejaVuSans-98"/>
      <use x="334.277344" xlink:href="#DejaVuSans-121"/>
      <use x="393.457031" xlink:href="#DejaVuSans-32"/>
      <use x="425.244141" xlink:href="#DejaVuSans-77"/>
      <use x="511.523438" xlink:href="#DejaVuSans-111"/>
      <use x="572.705078" xlink:href="#DejaVuSans-110"/>
      <use x="636.083984" xlink:href="#DejaVuSans-116"/>
      <use x="675.292969" xlink:href="#DejaVuSans-104"/>
     </g>
    </g>
   </g>
   <g id="matplotlib.axis_2">
    <g id="ytick_1">
     <g id="line2d_12">
      <defs>
       <path d="M 0 0 
L -3.5 0 
" id="m57c0ae804a" style="stroke:#000000;stroke-width:0.8;"/>
      </defs>
      <g>
       <use style="stroke:#000000;stroke-width:0.8;" x="180" xlink:href="#m57c0ae804a" y="606.587974"/>
      </g>
     </g>
     <g id="text_13">
      <!-- 0.0 -->
      <defs>
       <path d="M 10.6875 12.40625 
L 21 12.40625 
L 21 0 
L 10.6875 0 
z
" id="DejaVuSans-46"/>
      </defs>
      <g transform="translate(157.096875 610.387193)scale(0.1 -0.1)">
       <use xlink:href="#DejaVuSans-48"/>
       <use x="63.623047" xlink:href="#DejaVuSans-46"/>
       <use x="95.410156" xlink:href="#DejaVuSans-48"/>
      </g>
     </g>
    </g>
    <g id="ytick_2">
     <g id="line2d_13">
      <g>
       <use style="stroke:#000000;stroke-width:0.8;" x="180" xlink:href="#m57c0ae804a" y="541.734717"/>
      </g>
     </g>
     <g id="text_14">
      <!-- 2.5 -->
      <g transform="translate(157.096875 545.533936)scale(0.1 -0.1)">
       <use xlink:href="#DejaVuSans-50"/>
       <use x="63.623047" xlink:href="#DejaVuSans-46"/>
       <use x="95.410156" xlink:href="#DejaVuSans-53"/>
      </g>
     </g>
    </g>
    <g id="ytick_3">
     <g id="line2d_14">
      <g>
       <use style="stroke:#000000;stroke-width:0.8;" x="180" xlink:href="#m57c0ae804a" y="476.88146"/>
      </g>
     </g>
     <g id="text_15">
      <!-- 5.0 -->
      <g transform="translate(157.096875 480.680679)scale(0.1 -0.1)">
       <use xlink:href="#DejaVuSans-53"/>
       <use x="63.623047" xlink:href="#DejaVuSans-46"/>
       <use x="95.410156" xlink:href="#DejaVuSans-48"/>
      </g>
     </g>
    </g>
    <g id="ytick_4">
     <g id="line2d_15">
      <g>
       <use style="stroke:#000000;stroke-width:0.8;" x="180" xlink:href="#m57c0ae804a" y="412.028203"/>
      </g>
     </g>
     <g id="text_16">
      <!-- 7.5 -->
      <g transform="translate(157.096875 415.827422)scale(0.1 -0.1)">
       <use xlink:href="#DejaVuSans-55"/>
       <use x="63.623047" xlink:href="#DejaVuSans-46"/>
       <use x="95.410156" xlink:href="#DejaVuSans-53"/>
      </g>
     </g>
    </g>
    <g id="ytick_5">
     <g id="line2d_16">
      <g>
       <use style="stroke:#000000;stroke-width:0.8;" x="180" xlink:href="#m57c0ae804a" y="347.174946"/>
      </g>
     </g>
     <g id="text_17">
      <!-- 10.0 -->
      <g transform="translate(150.734375 350.974165)scale(0.1 -0.1)">
       <use xlink:href="#DejaVuSans-49"/>
       <use x="63.623047" xlink:href="#DejaVuSans-48"/>
       <use x="127.246094" xlink:href="#DejaVuSans-46"/>
       <use x="159.033203" xlink:href="#DejaVuSans-48"/>
      </g>
     </g>
    </g>
    <g id="ytick_6">
     <g id="line2d_17">
      <g>
       <use style="stroke:#000000;stroke-width:0.8;" x="180" xlink:href="#m57c0ae804a" y="282.321689"/>
      </g>
     </g>
     <g id="text_18">
      <!-- 12.5 -->
      <g transform="translate(150.734375 286.120908)scale(0.1 -0.1)">
       <use xlink:href="#DejaVuSans-49"/>
       <use x="63.623047" xlink:href="#DejaVuSans-50"/>
       <use x="127.246094" xlink:href="#DejaVuSans-46"/>
       <use x="159.033203" xlink:href="#DejaVuSans-53"/>
      </g>
     </g>
    </g>
    <g id="ytick_7">
     <g id="line2d_18">
      <g>
       <use style="stroke:#000000;stroke-width:0.8;" x="180" xlink:href="#m57c0ae804a" y="217.468432"/>
      </g>
     </g>
     <g id="text_19">
      <!-- 15.0 -->
      <g transform="translate(150.734375 221.267651)scale(0.1 -0.1)">
       <use xlink:href="#DejaVuSans-49"/>
       <use x="63.623047" xlink:href="#DejaVuSans-53"/>
       <use x="127.246094" xlink:href="#DejaVuSans-46"/>
       <use x="159.033203" xlink:href="#DejaVuSans-48"/>
      </g>
     </g>
    </g>
    <g id="ytick_8">
     <g id="line2d_19">
      <g>
       <use style="stroke:#000000;stroke-width:0.8;" x="180" xlink:href="#m57c0ae804a" y="152.615175"/>
      </g>
     </g>
     <g id="text_20">
      <!-- 17.5 -->
      <g transform="translate(150.734375 156.414394)scale(0.1 -0.1)">
       <use xlink:href="#DejaVuSans-49"/>
       <use x="63.623047" xlink:href="#DejaVuSans-55"/>
       <use x="127.246094" xlink:href="#DejaVuSans-46"/>
       <use x="159.033203" xlink:href="#DejaVuSans-53"/>
      </g>
     </g>
    </g>
    <g id="ytick_9">
     <g id="line2d_20">
      <g>
       <use style="stroke:#000000;stroke-width:0.8;" x="180" xlink:href="#m57c0ae804a" y="87.761918"/>
      </g>
     </g>
     <g id="text_21">
      <!-- 20.0 -->
      <g transform="translate(150.734375 91.561137)scale(0.1 -0.1)">
       <use xlink:href="#DejaVuSans-50"/>
       <use x="63.623047" xlink:href="#DejaVuSans-48"/>
       <use x="127.246094" xlink:href="#DejaVuSans-46"/>
       <use x="159.033203" xlink:href="#DejaVuSans-48"/>
      </g>
     </g>
    </g>
    <g id="text_22">
     <!-- Rate as % -->
     <defs>
      <path d="M 44.390625 34.1875 
Q 47.5625 33.109375 50.5625 29.59375 
Q 53.5625 26.078125 56.59375 19.921875 
L 66.609375 0 
L 56 0 
L 46.6875 18.703125 
Q 43.0625 26.03125 39.671875 28.421875 
Q 36.28125 30.8125 30.421875 30.8125 
L 19.671875 30.8125 
L 19.671875 0 
L 9.8125 0 
L 9.8125 72.90625 
L 32.078125 72.90625 
Q 44.578125 72.90625 50.734375 67.671875 
Q 56.890625 62.453125 56.890625 51.90625 
Q 56.890625 45.015625 53.6875 40.46875 
Q 50.484375 35.9375 44.390625 34.1875 
z
M 19.671875 64.796875 
L 19.671875 38.921875 
L 32.078125 38.921875 
Q 39.203125 38.921875 42.84375 42.21875 
Q 46.484375 45.515625 46.484375 51.90625 
Q 46.484375 58.296875 42.84375 61.546875 
Q 39.203125 64.796875 32.078125 64.796875 
z
" id="DejaVuSans-82"/>
      <path d="M 44.28125 53.078125 
L 44.28125 44.578125 
Q 40.484375 46.53125 36.375 47.5 
Q 32.28125 48.484375 27.875 48.484375 
Q 21.1875 48.484375 17.84375 46.4375 
Q 14.5 44.390625 14.5 40.28125 
Q 14.5 37.15625 16.890625 35.375 
Q 19.28125 33.59375 26.515625 31.984375 
L 29.59375 31.296875 
Q 39.15625 29.25 43.1875 25.515625 
Q 47.21875 21.78125 47.21875 15.09375 
Q 47.21875 7.46875 41.1875 3.015625 
Q 35.15625 -1.421875 24.609375 -1.421875 
Q 20.21875 -1.421875 15.453125 -0.5625 
Q 10.6875 0.296875 5.421875 2 
L 5.421875 11.28125 
Q 10.40625 8.6875 15.234375 7.390625 
Q 20.0625 6.109375 24.8125 6.109375 
Q 31.15625 6.109375 34.5625 8.28125 
Q 37.984375 10.453125 37.984375 14.40625 
Q 37.984375 18.0625 35.515625 20.015625 
Q 33.0625 21.96875 24.703125 23.78125 
L 21.578125 24.515625 
Q 13.234375 26.265625 9.515625 29.90625 
Q 5.8125 33.546875 5.8125 39.890625 
Q 5.8125 47.609375 11.28125 51.796875 
Q 16.75 56 26.8125 56 
Q 31.78125 56 36.171875 55.265625 
Q 40.578125 54.546875 44.28125 53.078125 
z
" id="DejaVuSans-115"/>
      <path d="M 72.703125 32.078125 
Q 68.453125 32.078125 66.03125 28.46875 
Q 63.625 24.859375 63.625 18.40625 
Q 63.625 12.0625 66.03125 8.421875 
Q 68.453125 4.78125 72.703125 4.78125 
Q 76.859375 4.78125 79.265625 8.421875 
Q 81.6875 12.0625 81.6875 18.40625 
Q 81.6875 24.8125 79.265625 28.4375 
Q 76.859375 32.078125 72.703125 32.078125 
z
M 72.703125 38.28125 
Q 80.421875 38.28125 84.953125 32.90625 
Q 89.5 27.546875 89.5 18.40625 
Q 89.5 9.28125 84.9375 3.921875 
Q 80.375 -1.421875 72.703125 -1.421875 
Q 64.890625 -1.421875 60.34375 3.921875 
Q 55.8125 9.28125 55.8125 18.40625 
Q 55.8125 27.59375 60.375 32.9375 
Q 64.9375 38.28125 72.703125 38.28125 
z
M 22.3125 68.015625 
Q 18.109375 68.015625 15.6875 64.375 
Q 13.28125 60.75 13.28125 54.390625 
Q 13.28125 47.953125 15.671875 44.328125 
Q 18.0625 40.71875 22.3125 40.71875 
Q 26.5625 40.71875 28.96875 44.328125 
Q 31.390625 47.953125 31.390625 54.390625 
Q 31.390625 60.6875 28.953125 64.34375 
Q 26.515625 68.015625 22.3125 68.015625 
z
M 66.40625 74.21875 
L 74.21875 74.21875 
L 28.609375 -1.421875 
L 20.796875 -1.421875 
z
M 22.3125 74.21875 
Q 30.03125 74.21875 34.609375 68.875 
Q 39.203125 63.53125 39.203125 54.390625 
Q 39.203125 45.171875 34.640625 39.84375 
Q 30.078125 34.515625 22.3125 34.515625 
Q 14.546875 34.515625 10.03125 39.859375 
Q 5.515625 45.21875 5.515625 54.390625 
Q 5.515625 63.484375 10.046875 68.84375 
Q 14.59375 74.21875 22.3125 74.21875 
z
" id="DejaVuSans-37"/>
     </defs>
     <g transform="translate(144.654687 383.260156)rotate(-90)scale(0.1 -0.1)">
      <use xlink:href="#DejaVuSans-82"/>
      <use x="67.232422" xlink:href="#DejaVuSans-97"/>
      <use x="128.511719" xlink:href="#DejaVuSans-116"/>
      <use x="167.720703" xlink:href="#DejaVuSans-101"/>
      <use x="229.244141" xlink:href="#DejaVuSans-32"/>
      <use x="261.03125" xlink:href="#DejaVuSans-97"/>
      <use x="322.310547" xlink:href="#DejaVuSans-115"/>
      <use x="374.410156" xlink:href="#DejaVuSans-32"/>
      <use x="406.197266" xlink:href="#DejaVuSans-37"/>
     </g>
    </g>
   </g>
   <g id="line2d_21">
    <path clip-path="url(#pbb2bf7d057)" d="M 180 585.834932 
L 181.382679 574.939585 
L 182.765357 578.83078 
L 184.103433 584.537867 
L 185.486112 585.056693 
L 186.824188 573.383107 
L 188.206866 570.529563 
L 189.589545 573.123694 
L 190.838416 571.567215 
L 192.221094 569.491911 
L 193.55917 569.491911 
L 194.941849 564.044238 
L 196.279925 563.006586 
L 197.662603 555.743021 
L 199.045282 550.035934 
L 200.383358 548.479456 
L 201.766037 545.625913 
L 203.104113 542.253543 
L 204.486791 543.031782 
L 205.86947 541.734717 
L 207.162943 541.734717 
L 208.545622 538.621761 
L 209.883698 535.249392 
L 211.266376 536.287044 
L 212.604452 535.249392 
L 213.987131 535.768218 
L 215.369809 530.061131 
L 216.707885 529.801718 
L 218.090564 531.877022 
L 219.42864 530.320544 
L 220.811318 532.914674 
L 222.193997 528.764066 
L 223.442868 529.801718 
L 224.825547 528.764066 
L 227.546301 528.764066 
L 228.884377 529.023479 
L 231.649734 516.571654 
L 232.98781 515.793414 
L 234.370489 521.500501 
L 235.708565 529.282892 
L 237.091243 536.027631 
L 238.473922 563.265999 
L 239.722793 575.458411 
L 241.105471 573.901933 
L 242.443547 590.244953 
L 243.826226 582.462563 
L 245.164302 588.947888 
L 246.546981 566.897781 
L 247.929659 560.931281 
L 249.267735 559.893629 
L 250.650414 547.701217 
L 251.98849 543.810021 
L 253.371168 542.253543 
L 254.753847 543.550608 
L 256.002718 533.952326 
L 257.385396 529.801718 
L 258.723472 531.358196 
L 260.106151 518.646958 
L 261.444227 516.571654 
L 262.826905 515.793414 
L 264.209584 509.048676 
L 265.54766 503.341589 
L 266.930339 502.822763 
L 268.268415 503.082176 
L 269.651093 503.082176 
L 271.033772 503.601002 
L 272.327245 506.973372 
L 273.709924 504.898067 
L 275.048 506.713958 
L 276.430678 520.462849 
L 277.768754 522.797566 
L 279.151433 529.282892 
L 280.534111 539.140587 
L 281.872187 542.512956 
L 283.254866 543.291195 
L 284.592942 555.224195 
L 285.97562 568.973085 
L 287.358299 540.697065 
L 289.989849 567.935433 
L 291.327925 555.224195 
L 292.710603 561.70952 
L 294.048679 576.23665 
L 295.431358 554.705369 
L 296.814036 557.818325 
L 298.152112 547.96063 
L 299.534791 538.881174 
L 300.872867 546.144739 
L 302.255545 550.814173 
L 303.638224 545.107087 
L 304.887095 532.655261 
L 306.269773 534.471152 
L 307.607849 545.3665 
L 308.990528 537.065283 
L 310.328604 536.287044 
L 311.711283 530.579957 
L 313.093961 531.358196 
L 314.432037 531.358196 
L 315.814716 530.320544 
L 318.53547 530.83937 
L 319.918149 528.764066 
L 321.16702 529.282892 
L 322.549698 531.358196 
L 323.887774 528.764066 
L 325.270453 529.023479 
L 326.608529 528.24524 
L 327.991207 516.052827 
L 329.373886 516.312241 
L 330.711962 515.793414 
L 332.094641 516.312241 
L 333.432717 518.906371 
L 334.815395 516.312241 
L 336.198074 516.312241 
L 337.491547 517.609306 
L 338.874226 516.571654 
L 340.212302 515.793414 
L 341.59498 515.793414 
L 342.933056 517.868719 
L 344.315735 515.793414 
L 345.698413 517.09048 
L 347.036489 519.425197 
L 348.419168 515.274588 
L 349.757244 506.713958 
L 351.139922 505.416893 
L 353.771472 501.525698 
L 355.154151 500.488046 
L 356.492227 500.228633 
L 357.874905 501.525698 
L 359.212981 500.488046 
L 360.59566 499.709807 
L 361.978338 502.303937 
L 363.316414 500.747459 
L 364.699093 500.228633 
L 366.037169 494.521546 
L 367.419847 491.927416 
L 368.802526 487.257981 
L 370.051397 485.701503 
L 371.434075 485.44209 
L 372.772151 479.475591 
L 374.15483 472.471439 
L 375.492906 469.099069 
L 376.875585 463.13257 
L 378.258263 466.504939 
L 379.596339 463.13257 
L 380.979018 457.16607 
L 382.317094 466.504939 
L 383.699772 478.437938 
L 385.082451 476.88146 
L 387.714 501.525698 
L 389.052076 504.379241 
L 390.434755 503.341589 
L 391.772831 508.270437 
L 393.155509 505.416893 
L 394.538188 503.082176 
L 395.876264 505.935719 
L 397.258942 499.450394 
L 398.597019 489.592699 
L 401.362376 484.404438 
L 402.655849 475.584395 
L 404.038528 457.16607 
L 405.376604 447.827201 
L 406.759282 449.124266 
L 408.097358 450.161918 
L 409.480037 450.161918 
L 410.862715 456.647244 
L 412.200791 453.274875 
L 413.58347 455.609592 
L 414.921546 450.421331 
L 416.304224 443.157767 
L 417.686903 435.115963 
L 418.935774 430.446528 
L 420.318452 414.362921 
L 421.656529 381.676879 
L 423.039207 375.710379 
L 424.377283 383.233357 
L 425.759962 368.187402 
L 427.14264 369.225054 
L 429.863395 377.007445 
L 431.201471 373.894488 
L 432.584149 373.635075 
L 433.966828 373.635075 
L 435.215699 405.283465 
L 436.598377 396.463422 
L 437.936453 400.354617 
L 439.319132 409.17466 
L 440.657208 419.551181 
L 442.039886 434.85655 
L 443.422565 443.41718 
L 444.760641 445.751897 
L 446.14332 461.316679 
L 448.864074 499.190981 
L 450.246753 510.086328 
L 451.495624 510.345741 
L 454.216378 486.479742 
L 455.599057 479.216178 
L 456.937133 468.839656 
L 458.319811 462.094918 
L 459.70249 462.613744 
L 461.040566 471.6932 
L 462.423244 479.216178 
L 463.76132 499.190981 
L 465.143999 515.534001 
L 466.526678 520.981675 
L 467.820151 507.232785 
L 469.20283 498.412742 
L 470.540906 495.818611 
L 471.923584 490.889764 
L 473.26166 488.555047 
L 474.644339 481.810308 
L 476.027017 480.25383 
L 477.365093 475.584395 
L 478.747772 475.324982 
L 480.085848 468.32083 
L 484.100076 422.664137 
L 485.482754 421.885898 
L 486.820831 403.20816 
L 488.203509 386.346314 
L 489.541585 336.798425 
L 490.924264 334.204295 
L 492.306942 326.94073 
L 493.645018 346.915533 
L 495.027697 346.396707 
L 496.365773 348.472011 
L 497.748451 356.254402 
L 499.13113 373.894488 
L 500.380001 364.036793 
L 501.762679 333.944882 
L 503.100755 313.19184 
L 504.483434 297.108232 
L 505.82151 271.426342 
L 507.204188 295.032928 
L 508.586867 312.413601 
L 509.924943 345.618468 
L 511.307622 361.442663 
L 512.645698 385.308661 
L 514.028376 421.626485 
L 515.411055 444.714245 
L 516.659926 462.873157 
L 518.042604 464.170222 
L 519.38068 471.174374 
L 520.763359 462.613744 
L 522.101435 448.346027 
L 523.484113 447.308375 
L 524.866792 444.714245 
L 526.204868 455.609592 
L 527.587546 471.174374 
L 528.925622 471.6932 
L 530.308301 480.25383 
L 531.69098 482.84796 
L 532.984453 481.032069 
L 534.367132 481.550895 
L 535.705208 469.358482 
L 537.087886 464.429635 
L 538.425962 468.839656 
L 539.808641 469.358482 
L 541.191319 470.396135 
L 542.529395 476.362634 
L 543.912074 478.178525 
L 545.25015 485.960916 
L 546.632828 486.998568 
L 548.015507 485.182677 
L 549.264378 484.923264 
L 550.647056 483.885612 
L 551.985132 467.802004 
L 553.367811 466.764352 
L 554.705887 465.986113 
L 556.088566 453.534288 
L 557.471244 447.308375 
L 558.80932 438.747745 
L 560.191999 437.710093 
L 561.530075 436.413028 
L 562.912753 432.781246 
L 564.295432 430.705941 
L 565.544303 430.446528 
L 566.926981 427.852398 
L 568.265057 415.659986 
L 569.647736 409.434073 
L 572.36849 398.0199 
L 573.751169 387.383966 
L 575.089245 374.153901 
L 576.471924 353.400859 
L 577.81 346.396707 
L 579.192678 345.359055 
L 580.575357 345.618468 
L 581.824228 344.840229 
L 583.206906 346.915533 
L 584.544982 340.949034 
L 585.927661 339.651969 
L 587.265737 334.982534 
L 590.031094 310.078883 
L 591.36917 249.376235 
L 592.751848 264.681603 
L 594.089924 249.116822 
L 595.472603 248.07917 
L 596.855282 240.037366 
L 598.148755 160.656979 
L 599.531434 149.761632 
L 600.86951 321.75247 
L 602.252188 360.923837 
L 603.590264 372.33801 
L 604.972943 357.292054 
L 606.355621 324.606013 
L 607.693697 274.279885 
L 610.414452 116.297351 
L 611.79713 111.627917 
L 613.179809 193.343021 
L 614.42868 225.250823 
L 615.811358 198.790694 
L 617.149434 126.155047 
L 618.532113 111.109091 
L 619.870189 112.665569 
L 621.252868 144.313958 
L 622.635546 194.899499 
L 623.973622 215.393128 
L 625.356301 261.309234 
L 626.694377 285.694059 
L 628.077055 263.643951 
L 629.459734 223.175519 
L 630.708605 225.769649 
L 632.091283 219.024911 
L 633.429359 231.736149 
L 634.812038 239.51854 
L 636.150114 279.986972 
L 637.532792 344.06199 
L 638.915471 339.133142 
L 640.253547 354.697924 
L 641.636226 367.927989 
L 644.35698 381.417466 
L 645.739659 385.827487 
L 646.98853 379.082749 
L 648.371208 378.30451 
L 649.709284 382.714531 
L 651.091963 373.635075 
L 652.430039 363.517967 
L 653.812717 358.58912 
L 655.195396 361.442663 
L 656.533472 360.664424 
L 657.91615 364.296206 
L 659.254226 360.923837 
L 660.636905 358.58912 
L 662.019584 357.81088 
L 663.313057 349.509664 
L 664.695736 339.651969 
L 666.033812 338.873729 
L 667.41649 319.677165 
L 668.754566 315.267144 
L 670.137245 304.63121 
L 671.519923 313.451253 
L 672.857999 347.434359 
L 674.240678 361.961489 
L 675.578754 389.199857 
L 676.961432 389.978096 
L 678.344111 386.086901 
L 679.592982 384.011596 
L 682.313736 399.835791 
L 683.696415 411.249964 
L 685.034491 402.170508 
L 687.799848 401.132856 
L 689.137924 399.316965 
L 690.520603 397.760487 
L 691.858679 392.0534 
L 693.241357 395.42577 
L 694.624036 402.689334 
L 695.872907 412.547029 
L 697.255585 425.258268 
L 698.593661 428.89005 
L 699.97634 427.074159 
L 702.697094 446.530136 
L 704.079773 453.793701 
L 705.417849 454.831353 
L 706.800528 449.902505 
L 708.138604 427.333572 
L 709.521282 439.785397 
L 710.903961 448.346027 
L 712.152832 447.567788 
L 713.53551 441.341875 
L 714.873586 428.89005 
L 716.256265 432.003006 
L 717.594341 435.894202 
L 718.977019 432.003006 
L 720.359698 419.291768 
L 721.697774 417.475877 
L 723.080452 433.040659 
L 724.418528 430.965354 
L 725.801207 429.408876 
L 727.183886 435.894202 
L 728.477359 435.894202 
L 729.860038 428.371224 
L 731.198114 422.664137 
L 732.580792 411.76879 
L 735.301547 398.798139 
L 736.684225 394.128704 
L 738.022301 391.275161 
L 739.40498 389.978096 
L 740.743056 379.342162 
L 742.125734 370.003293 
L 743.508413 363.77738 
L 744.757284 351.066142 
L 746.139962 351.325555 
L 747.478038 352.103794 
L 751.581472 373.375662 
L 752.96415 372.597423 
L 754.302226 377.266858 
L 755.684905 384.789835 
L 757.022981 387.383966 
L 758.405659 393.091052 
L 759.788338 392.831639 
L 761.037209 391.793987 
L 762.419887 392.312813 
L 763.757963 394.388117 
L 765.140642 391.534574 
L 766.478718 395.166356 
L 767.861396 395.685183 
L 769.244075 393.869291 
L 770.582151 396.204009 
L 771.96483 403.986399 
L 773.302906 416.957051 
L 774.685584 427.333572 
L 776.068263 444.454832 
L 777.317134 447.827201 
L 778.699812 453.274875 
L 780.037888 456.647244 
L 781.420567 453.534288 
L 782.758643 455.609592 
L 784.141321 459.7602 
L 785.524 465.207874 
L 786.862076 471.433787 
L 790.965509 502.044524 
L 792.348188 501.266285 
L 793.641661 503.341589 
L 795.02434 509.826915 
L 796.362416 507.492198 
L 797.745094 509.048676 
L 799.08317 522.27874 
L 800.465849 520.981675 
L 801.848527 523.056979 
L 803.186603 526.169936 
L 804.569282 526.429349 
L 805.907358 530.83937 
L 807.290036 528.24524 
L 808.672715 527.985827 
L 809.921586 526.948175 
L 811.304264 529.801718 
L 814.025019 527.726414 
L 815.363095 527.207588 
L 816.745774 527.985827 
L 818.128452 526.429349 
L 819.466528 529.023479 
L 820.849207 528.24524 
L 822.187283 529.801718 
L 823.569961 527.467001 
L 824.95264 522.27874 
L 826.201511 519.944023 
L 827.584189 514.236936 
L 828.922265 502.56335 
L 830.304944 496.337437 
L 831.64302 496.078024 
L 833.025698 490.630351 
L 834.408377 483.885612 
L 835.746453 483.107373 
L 837.129132 469.358482 
L 838.467208 465.207874 
L 839.849886 463.13257 
L 841.232565 453.015462 
L 843.864114 449.643092 
L 845.20219 450.680744 
L 846.584869 450.940157 
L 847.922945 454.831353 
L 849.305623 457.684896 
L 850.688302 456.128418 
L 852.026378 457.16607 
L 853.409056 456.128418 
L 854.747132 461.316679 
L 856.129811 462.354331 
L 857.51249 471.174374 
L 858.805963 468.839656 
L 860.188642 471.174374 
L 861.526718 470.655548 
L 862.909396 469.877309 
L 864.247472 466.504939 
L 865.630151 471.174374 
L 867.012829 469.099069 
L 868.350905 470.655548 
L 869.733584 468.839656 
L 871.07166 469.358482 
L 872.454338 470.396135 
L 873.837017 471.952613 
L 875.085888 466.764352 
L 876.468566 463.651396 
L 877.806642 463.910809 
L 879.189321 462.354331 
L 880.527397 463.391983 
L 881.910076 462.873157 
L 883.292754 462.873157 
L 884.63083 463.910809 
L 886.013509 463.391983 
L 887.351585 463.910809 
L 888.734263 462.354331 
L 890.116942 463.651396 
L 891.365813 464.170222 
L 892.748491 465.207874 
L 894.086567 464.170222 
L 895.469246 462.354331 
L 896.807322 462.873157 
L 898.19 462.613744 
L 899.572679 463.651396 
L 900.910755 475.065569 
L 902.293434 481.291482 
L 903.63151 485.182677 
L 905.014188 486.479742 
L 906.396867 483.107373 
L 907.645738 481.810308 
L 909.028416 483.626199 
L 910.366492 483.626199 
L 911.749171 483.107373 
L 913.087247 477.140873 
L 914.469925 475.065569 
L 915.852604 471.174374 
L 917.19068 471.6932 
L 918.573358 465.986113 
L 919.911434 469.099069 
L 921.294113 465.207874 
L 922.676791 457.944309 
L 923.970265 454.831353 
L 925.352944 450.421331 
L 928.073698 437.191267 
L 929.411774 436.931854 
L 930.794453 437.969506 
L 932.177131 437.45068 
L 933.515207 437.710093 
L 934.897886 437.710093 
L 936.235962 440.563636 
L 937.61864 451.458984 
L 939.001319 464.170222 
L 940.25019 468.839656 
L 941.632868 482.069721 
L 942.970944 497.375089 
L 944.353623 503.601002 
L 945.691699 508.789263 
L 947.074378 511.902219 
L 949.795132 541.99413 
L 951.177811 552.370651 
L 952.515887 559.374803 
L 953.898565 561.70952 
L 955.281244 561.450107 
L 956.530115 561.70952 
L 957.912793 561.190694 
L 960.633548 561.190694 
L 961.971624 561.70952 
L 964.736981 561.190694 
L 966.075057 561.190694 
L 967.457736 571.826628 
L 968.795812 574.420759 
L 970.17849 574.420759 
L 971.561169 573.901933 
L 972.81004 574.161346 
L 974.192718 573.901933 
L 975.530794 573.901933 
L 976.913473 574.939585 
L 978.251549 580.387258 
L 979.634227 579.868432 
L 981.016906 580.387258 
L 982.354982 580.387258 
L 983.73766 580.646671 
L 985.075736 581.165497 
L 986.458415 580.646671 
L 987.841093 580.387258 
L 989.134567 580.646671 
L 991.855322 580.646671 
L 993.238 579.868432 
L 994.576076 573.901933 
L 1000.062188 556.52126 
L 1001.400264 550.55476 
L 1002.782942 547.441804 
L 1004.165621 541.734717 
L 1005.414492 538.362348 
L 1006.79717 534.211739 
L 1008.135246 528.764066 
L 1009.517925 527.726414 
L 1012.23868 515.793414 
L 1013.621358 512.680458 
L 1014.959434 508.52985 
L 1016.342113 502.822763 
L 1017.680189 498.672155 
L 1019.062867 495.299785 
L 1020.445546 490.111525 
L 1021.694417 487.517394 
L 1023.077095 482.329134 
L 1024.415171 478.437938 
L 1025.79785 477.140873 
L 1027.135926 470.655548 
L 1028.518604 470.396135 
L 1032.622037 470.396135 
L 1033.960114 470.655548 
L 1036.725471 470.136722 
L 1037.974342 470.136722 
L 1039.35702 470.396135 
L 1042.077775 470.396135 
L 1043.415851 470.136722 
L 1044.798529 476.362634 
L 1046.181208 478.437938 
L 1047.519284 483.107373 
L 1051.622717 504.379241 
L 1053.005395 529.282892 
L 1054.298869 538.881174 
L 1057.019624 555.224195 
L 1058.402302 554.705369 
L 1059.740378 554.445956 
L 1061.123057 554.705369 
L 1062.505735 559.634216 
L 1063.843811 581.424911 
L 1065.22649 596.470866 
L 1066.564566 602.437366 
L 1067.947244 602.696779 
L 1069.329923 600.880888 
L 1070.578794 601.91854 
L 1071.961472 602.696779 
L 1074.682227 601.140301 
L 1076.020303 602.437366 
L 1077.402981 602.437366 
L 1078.78566 602.696779 
L 1080.123736 603.475018 
L 1082.844491 603.475018 
L 1084.227169 603.734431 
L 1085.609848 603.215605 
L 1086.858719 602.437366 
L 1088.241397 601.399714 
L 1089.579473 601.399714 
L 1090.962152 601.91854 
L 1092.300228 601.91854 
L 1093.682906 601.659127 
L 1097.786339 601.659127 
L 1101.889773 602.437366 
L 1103.138644 602.956192 
L 1104.521322 603.993844 
L 1105.859398 604.253257 
L 1107.242077 604.253257 
L 1108.580153 604.772083 
L 1109.962831 603.993844 
L 1111.34551 604.51267 
L 1112.683586 604.772083 
L 1114.066264 604.51267 
L 1115.40434 604.772083 
L 1116.787019 604.51267 
L 1118.169697 603.993844 
L 1119.463171 603.215605 
L 1120.845849 602.956192 
L 1122.183926 602.437366 
L 1124.90468 602.437366 
L 1126.287359 603.215605 
L 1127.670037 602.956192 
L 1129.008113 602.437366 
L 1131.728868 602.437366 
L 1133.111546 602.956192 
L 1134.494225 602.696779 
L 1135.743096 602.956192 
L 1137.125774 602.696779 
L 1138.46385 603.734431 
L 1139.846529 604.253257 
L 1141.184605 604.253257 
L 1142.567283 604.51267 
L 1143.949962 604.51267 
L 1145.288038 604.253257 
L 1146.670717 604.51267 
L 1148.008793 604.253257 
L 1149.391471 604.772083 
L 1150.77415 604.772083 
L 1153.405699 604.253257 
L 1154.743775 604.253257 
L 1156.126454 603.993844 
L 1157.46453 604.253257 
L 1162.950641 604.253257 
L 1164.288717 603.475018 
L 1165.671396 603.734431 
L 1168.302946 603.734431 
L 1169.685624 603.475018 
L 1171.0237 603.475018 
L 1172.406379 603.215605 
L 1173.744455 603.215605 
L 1175.127133 602.956192 
L 1176.509812 602.956192 
L 1177.847888 603.475018 
L 1179.230566 603.475018 
L 1180.568642 600.362062 
L 1181.951321 597.767931 
L 1183.333999 596.730279 
L 1184.627473 597.249105 
L 1186.010151 596.989692 
L 1187.348227 596.989692 
L 1191.451661 596.211453 
L 1194.172415 596.211453 
L 1195.555094 595.95204 
L 1196.89317 592.579671 
L 1198.275848 589.726127 
L 1199.658527 589.466714 
L 1200.907398 586.094345 
L 1202.290076 583.240802 
L 1203.628152 582.981389 
L 1205.010831 579.609019 
L 1206.348907 576.755476 
L 1207.731585 576.496063 
L 1209.114264 576.755476 
L 1210.45234 576.755476 
L 1211.835019 576.496063 
L 1213.173095 572.864281 
L 1214.555773 570.010737 
L 1215.938452 569.751324 
L 1217.187323 567.416607 
L 1218.570001 562.747173 
L 1219.908077 562.487759 
L 1221.290756 559.374803 
L 1222.628832 557.040086 
L 1224.01151 557.040086 
L 1225.394189 556.002434 
L 1226.732265 549.776521 
L 1228.114943 549.517108 
L 1229.453019 547.701217 
L 1230.835698 544.328848 
L 1232.218377 544.328848 
L 1234.849926 543.810021 
L 1236.188002 544.588261 
L 1237.570681 544.847674 
L 1238.908757 544.328848 
L 1240.291435 551.332999 
L 1241.674114 553.667717 
L 1243.01219 559.11539 
L 1244.394868 566.378955 
L 1247.115623 566.378955 
L 1248.498301 565.600716 
L 1249.791775 589.726127 
L 1251.174453 605.290909 
L 1252.512529 605.290909 
L 1253.895208 604.51267 
L 1256.615963 603.993844 
L 1257.998641 604.253257 
L 1263.44015 604.253257 
L 1266.0717 604.772083 
L 1267.454378 604.772083 
L 1268.792454 605.031496 
L 1271.513209 603.993844 
L 1274.278566 604.51267 
L 1281.102754 604.51267 
L 1283.734303 598.027344 
L 1287.793134 563.006586 
L 1289.175812 546.144739 
L 1290.558491 540.178239 
L 1291.896567 526.688762 
L 1293.279245 508.52985 
L 1294.617321 500.228633 
L 1296 494.262133 
L 1296 494.262133 
" style="fill:none;stroke:#00ffff;stroke-linecap:square;stroke-width:1.5;"/>
   </g>
   <g id="line2d_22">
    <path clip-path="url(#pbb2bf7d057)" d="M 180 456.128418 
L 181.382679 450.940157 
L 182.765357 448.346027 
L 185.486112 469.099069 
L 186.824188 476.88146 
L 188.206866 479.475591 
L 189.589545 484.663851 
L 190.838416 487.257981 
L 192.221094 484.663851 
L 193.55917 495.040372 
L 194.941849 497.634503 
L 196.279925 502.822763 
L 197.662603 497.634503 
L 199.045282 500.228633 
L 200.383358 495.040372 
L 201.766037 497.634503 
L 203.104113 497.634503 
L 204.486791 502.822763 
L 205.86947 505.416893 
L 207.162943 497.634503 
L 208.545622 502.822763 
L 209.883698 495.040372 
L 211.266376 495.040372 
L 212.604452 492.446242 
L 213.987131 500.228633 
L 215.369809 505.416893 
L 216.707885 505.416893 
L 218.090564 495.040372 
L 219.42864 497.634503 
L 220.811318 497.634503 
L 222.193997 505.416893 
L 223.442868 510.605154 
L 227.546301 495.040372 
L 230.267056 500.228633 
L 231.649734 492.446242 
L 232.98781 489.852112 
L 234.370489 474.28733 
L 235.708565 471.6932 
L 238.473922 440.563636 
L 239.722793 432.781246 
L 241.105471 414.622334 
L 242.443547 414.622334 
L 243.826226 417.216464 
L 245.164302 412.028203 
L 246.546981 414.622334 
L 247.929659 422.404724 
L 249.267735 432.781246 
L 250.650414 445.751897 
L 251.98849 445.751897 
L 253.371168 450.940157 
L 254.753847 453.534288 
L 256.002718 461.316679 
L 257.385396 471.6932 
L 260.106151 476.88146 
L 262.826905 471.6932 
L 264.209584 463.910809 
L 265.54766 458.722548 
L 266.930339 456.128418 
L 268.268415 469.099069 
L 269.651093 471.6932 
L 271.033772 482.069721 
L 272.327245 466.504939 
L 273.709924 471.6932 
L 275.048 474.28733 
L 276.430678 466.504939 
L 279.151433 461.316679 
L 280.534111 463.910809 
L 281.872187 448.346027 
L 283.254866 448.346027 
L 284.592942 435.375376 
L 285.97562 435.375376 
L 287.358299 427.592985 
L 288.60717 427.592985 
L 291.327925 422.404724 
L 292.710603 427.592985 
L 294.048679 424.998855 
L 295.431358 435.375376 
L 296.814036 432.781246 
L 298.152112 437.969506 
L 299.534791 448.346027 
L 300.872867 450.940157 
L 302.255545 456.128418 
L 303.638224 463.910809 
L 304.887095 461.316679 
L 306.269773 461.316679 
L 307.607849 463.910809 
L 308.990528 463.910809 
L 310.328604 466.504939 
L 311.711283 458.722548 
L 313.093961 461.316679 
L 314.432037 466.504939 
L 315.814716 458.722548 
L 317.152792 463.910809 
L 319.918149 453.534288 
L 321.16702 458.722548 
L 322.549698 458.722548 
L 323.887774 453.534288 
L 325.270453 461.316679 
L 326.608529 461.316679 
L 327.991207 466.504939 
L 329.373886 463.910809 
L 330.711962 463.910809 
L 332.094641 458.722548 
L 333.432717 463.910809 
L 334.815395 461.316679 
L 336.198074 466.504939 
L 337.491547 466.504939 
L 338.874226 469.099069 
L 340.212302 474.28733 
L 341.59498 471.6932 
L 342.933056 479.475591 
L 345.698413 474.28733 
L 347.036489 474.28733 
L 348.419168 482.069721 
L 349.757244 476.88146 
L 351.139922 479.475591 
L 352.522601 474.28733 
L 353.771472 484.663851 
L 355.154151 482.069721 
L 356.492227 487.257981 
L 357.874905 487.257981 
L 359.212981 492.446242 
L 360.59566 492.446242 
L 366.037169 502.822763 
L 367.419847 502.822763 
L 368.802526 508.011024 
L 371.434075 508.011024 
L 372.772151 505.416893 
L 374.15483 508.011024 
L 376.875585 508.011024 
L 378.258263 510.605154 
L 379.596339 510.605154 
L 380.979018 513.199284 
L 382.317094 508.011024 
L 383.699772 505.416893 
L 385.082451 508.011024 
L 389.052076 508.011024 
L 390.434755 505.416893 
L 391.772831 508.011024 
L 394.538188 508.011024 
L 395.876264 502.822763 
L 399.979697 510.605154 
L 401.362376 508.011024 
L 402.655849 510.605154 
L 404.038528 515.793414 
L 405.376604 515.793414 
L 406.759282 510.605154 
L 408.097358 510.605154 
L 409.480037 515.793414 
L 410.862715 518.387545 
L 421.656529 518.387545 
L 423.039207 515.793414 
L 425.759962 515.793414 
L 427.14264 510.605154 
L 428.480716 510.605154 
L 429.863395 515.793414 
L 431.201471 515.793414 
L 432.584149 505.416893 
L 433.966828 497.634503 
L 435.215699 492.446242 
L 437.936453 482.069721 
L 442.039886 474.28733 
L 443.422565 466.504939 
L 444.760641 463.910809 
L 446.14332 453.534288 
L 447.481396 448.346027 
L 448.864074 453.534288 
L 450.246753 453.534288 
L 451.495624 450.940157 
L 452.878302 453.534288 
L 455.599057 453.534288 
L 458.319811 448.346027 
L 459.70249 450.940157 
L 461.040566 456.128418 
L 462.423244 450.940157 
L 463.76132 450.940157 
L 465.143999 456.128418 
L 466.526678 458.722548 
L 467.820151 456.128418 
L 469.20283 458.722548 
L 471.923584 458.722548 
L 473.26166 461.316679 
L 474.644339 461.316679 
L 476.027017 463.910809 
L 477.365093 461.316679 
L 478.747772 469.099069 
L 480.085848 471.6932 
L 481.468526 479.475591 
L 482.851205 476.88146 
L 484.100076 479.475591 
L 485.482754 476.88146 
L 486.820831 479.475591 
L 488.203509 479.475591 
L 489.541585 482.069721 
L 492.306942 482.069721 
L 493.645018 487.257981 
L 495.027697 482.069721 
L 496.365773 479.475591 
L 497.748451 474.28733 
L 499.13113 471.6932 
L 500.380001 474.28733 
L 503.100755 474.28733 
L 504.483434 466.504939 
L 505.82151 463.910809 
L 507.204188 463.910809 
L 508.586867 453.534288 
L 509.924943 450.940157 
L 512.645698 419.810594 
L 514.028376 396.463422 
L 515.411055 396.463422 
L 516.659926 383.49277 
L 519.38068 373.116249 
L 523.484113 388.681031 
L 526.204868 388.681031 
L 528.925622 393.869291 
L 530.308301 401.651682 
L 531.69098 406.839943 
L 532.984453 409.434073 
L 534.367132 406.839943 
L 535.705208 414.622334 
L 538.425962 404.245812 
L 539.808641 404.245812 
L 541.191319 409.434073 
L 543.912074 404.245812 
L 545.25015 404.245812 
L 546.632828 412.028203 
L 548.015507 409.434073 
L 549.264378 414.622334 
L 551.985132 424.998855 
L 553.367811 419.810594 
L 554.705887 427.592985 
L 556.088566 424.998855 
L 557.471244 430.187115 
L 560.191999 430.187115 
L 561.530075 440.563636 
L 562.912753 440.563636 
L 564.295432 443.157767 
L 565.544303 443.157767 
L 566.926981 448.346027 
L 569.647736 453.534288 
L 570.985812 445.751897 
L 572.36849 453.534288 
L 573.751169 450.940157 
L 575.089245 456.128418 
L 577.81 450.940157 
L 579.192678 453.534288 
L 580.575357 453.534288 
L 581.824228 456.128418 
L 583.206906 456.128418 
L 584.544982 461.316679 
L 585.927661 458.722548 
L 587.265737 458.722548 
L 588.648415 450.940157 
L 590.031094 453.534288 
L 591.36917 450.940157 
L 592.751848 453.534288 
L 594.089924 450.940157 
L 595.472603 443.157767 
L 598.148755 443.157767 
L 600.86951 412.028203 
L 602.252188 409.434073 
L 603.590264 404.245812 
L 604.972943 406.839943 
L 606.355621 412.028203 
L 609.076376 412.028203 
L 610.414452 419.810594 
L 611.79713 412.028203 
L 613.179809 414.622334 
L 614.42868 414.622334 
L 615.811358 419.810594 
L 617.149434 412.028203 
L 618.532113 412.028203 
L 619.870189 419.810594 
L 622.635546 409.434073 
L 623.973622 401.651682 
L 625.356301 391.275161 
L 626.694377 386.086901 
L 628.077055 383.49277 
L 629.459734 375.710379 
L 630.708605 373.116249 
L 632.091283 365.333858 
L 633.429359 362.739728 
L 636.150114 352.363207 
L 637.532792 352.363207 
L 640.253547 336.798425 
L 641.636226 326.421904 
L 642.974302 326.421904 
L 644.35698 336.798425 
L 645.739659 336.798425 
L 646.98853 339.392555 
L 649.709284 344.580816 
L 651.091963 344.580816 
L 652.430039 362.739728 
L 653.812717 360.145598 
L 655.195396 367.927989 
L 656.533472 378.30451 
L 657.91615 386.086901 
L 659.254226 391.275161 
L 660.636905 399.057552 
L 662.019584 404.245812 
L 663.313057 404.245812 
L 664.695736 406.839943 
L 666.033812 414.622334 
L 667.41649 419.810594 
L 668.754566 412.028203 
L 670.137245 412.028203 
L 671.519923 417.216464 
L 672.857999 414.622334 
L 674.240678 419.810594 
L 675.578754 417.216464 
L 676.961432 417.216464 
L 678.344111 419.810594 
L 679.592982 419.810594 
L 680.97566 417.216464 
L 682.313736 419.810594 
L 683.696415 414.622334 
L 685.034491 414.622334 
L 686.41717 422.404724 
L 689.137924 422.404724 
L 690.520603 424.998855 
L 691.858679 424.998855 
L 693.241357 432.781246 
L 694.624036 419.810594 
L 695.872907 419.810594 
L 697.255585 422.404724 
L 698.593661 419.810594 
L 699.97634 419.810594 
L 701.314416 424.998855 
L 702.697094 427.592985 
L 704.079773 424.998855 
L 705.417849 424.998855 
L 706.800528 427.592985 
L 708.138604 435.375376 
L 712.152832 435.375376 
L 713.53551 443.157767 
L 714.873586 443.157767 
L 720.359698 453.534288 
L 721.697774 450.940157 
L 723.080452 456.128418 
L 724.418528 458.722548 
L 728.477359 458.722548 
L 729.860038 466.504939 
L 731.198114 461.316679 
L 732.580792 466.504939 
L 733.918868 466.504939 
L 735.301547 461.316679 
L 736.684225 466.504939 
L 738.022301 466.504939 
L 739.40498 469.099069 
L 740.743056 469.099069 
L 742.125734 466.504939 
L 743.508413 471.6932 
L 744.757284 476.88146 
L 746.139962 471.6932 
L 747.478038 471.6932 
L 748.860717 469.099069 
L 750.198793 471.6932 
L 751.581472 471.6932 
L 752.96415 469.099069 
L 754.302226 469.099069 
L 755.684905 466.504939 
L 758.405659 466.504939 
L 759.788338 469.099069 
L 761.037209 471.6932 
L 762.419887 466.504939 
L 763.757963 466.504939 
L 765.140642 471.6932 
L 766.478718 463.910809 
L 769.244075 453.534288 
L 770.582151 453.534288 
L 771.96483 445.751897 
L 774.685584 440.563636 
L 776.068263 435.375376 
L 777.317134 430.187115 
L 778.699812 432.781246 
L 780.037888 427.592985 
L 781.420567 427.592985 
L 782.758643 430.187115 
L 784.141321 427.592985 
L 785.524 427.592985 
L 786.862076 424.998855 
L 788.244754 424.998855 
L 789.58283 417.216464 
L 790.965509 417.216464 
L 792.348188 414.622334 
L 795.02434 414.622334 
L 797.745094 404.245812 
L 800.465849 409.434073 
L 801.848527 409.434073 
L 803.186603 417.216464 
L 804.569282 414.622334 
L 805.907358 414.622334 
L 807.290036 417.216464 
L 808.672715 422.404724 
L 809.921586 424.998855 
L 811.304264 422.404724 
L 812.64234 422.404724 
L 818.128452 432.781246 
L 819.466528 430.187115 
L 820.849207 435.375376 
L 822.187283 437.969506 
L 823.569961 435.375376 
L 824.95264 435.375376 
L 826.201511 437.969506 
L 827.584189 440.563636 
L 828.922265 448.346027 
L 831.64302 448.346027 
L 835.746453 456.128418 
L 837.129132 461.316679 
L 838.467208 463.910809 
L 839.849886 461.316679 
L 841.232565 466.504939 
L 842.481436 466.504939 
L 843.864114 456.128418 
L 845.20219 461.316679 
L 846.584869 461.316679 
L 847.922945 458.722548 
L 849.305623 458.722548 
L 852.026378 463.910809 
L 853.409056 461.316679 
L 856.129811 461.316679 
L 857.51249 463.910809 
L 858.805963 463.910809 
L 860.188642 461.316679 
L 861.526718 461.316679 
L 862.909396 469.099069 
L 864.247472 463.910809 
L 865.630151 474.28733 
L 867.012829 471.6932 
L 868.350905 471.6932 
L 869.733584 466.504939 
L 871.07166 466.504939 
L 873.837017 471.6932 
L 875.085888 471.6932 
L 876.468566 474.28733 
L 877.806642 479.475591 
L 879.189321 476.88146 
L 881.910076 482.069721 
L 883.292754 479.475591 
L 884.63083 484.663851 
L 886.013509 487.257981 
L 887.351585 484.663851 
L 888.734263 487.257981 
L 890.116942 487.257981 
L 891.365813 484.663851 
L 892.748491 495.040372 
L 895.469246 489.852112 
L 898.19 489.852112 
L 899.572679 487.257981 
L 902.293434 492.446242 
L 903.63151 492.446242 
L 905.014188 495.040372 
L 906.396867 492.446242 
L 907.645738 497.634503 
L 909.028416 495.040372 
L 910.366492 497.634503 
L 911.749171 495.040372 
L 913.087247 495.040372 
L 914.469925 497.634503 
L 915.852604 497.634503 
L 917.19068 500.228633 
L 918.573358 500.228633 
L 919.911434 502.822763 
L 921.294113 502.822763 
L 922.676791 500.228633 
L 923.970265 502.822763 
L 925.352944 508.011024 
L 926.69102 502.822763 
L 929.411774 502.822763 
L 930.794453 500.228633 
L 932.177131 505.416893 
L 936.235962 505.416893 
L 937.61864 497.634503 
L 939.001319 497.634503 
L 940.25019 495.040372 
L 941.632868 492.446242 
L 942.970944 495.040372 
L 944.353623 489.852112 
L 945.691699 487.257981 
L 947.074378 479.475591 
L 948.457056 476.88146 
L 949.795132 469.099069 
L 952.515887 458.722548 
L 956.530115 458.722548 
L 957.912793 453.534288 
L 959.250869 456.128418 
L 961.971624 456.128418 
L 963.354302 458.722548 
L 966.075057 458.722548 
L 967.457736 453.534288 
L 968.795812 450.940157 
L 970.17849 456.128418 
L 971.561169 453.534288 
L 972.81004 453.534288 
L 975.530794 448.346027 
L 976.913473 443.157767 
L 979.634227 448.346027 
L 981.016906 448.346027 
L 982.354982 450.940157 
L 983.73766 456.128418 
L 985.075736 458.722548 
L 986.458415 458.722548 
L 987.841093 461.316679 
L 989.134567 456.128418 
L 990.517246 461.316679 
L 993.238 461.316679 
L 995.958755 466.504939 
L 997.341433 466.504939 
L 998.679509 463.910809 
L 1000.062188 466.504939 
L 1001.400264 466.504939 
L 1002.782942 469.099069 
L 1004.165621 466.504939 
L 1005.414492 471.6932 
L 1006.79717 471.6932 
L 1009.517925 476.88146 
L 1010.856001 476.88146 
L 1012.23868 479.475591 
L 1013.621358 476.88146 
L 1016.342113 476.88146 
L 1017.680189 479.475591 
L 1019.062867 484.663851 
L 1020.445546 482.069721 
L 1021.694417 484.663851 
L 1023.077095 484.663851 
L 1024.415171 487.257981 
L 1025.79785 487.257981 
L 1027.135926 484.663851 
L 1028.518604 484.663851 
L 1029.901283 489.852112 
L 1031.239359 492.446242 
L 1032.622037 489.852112 
L 1033.960114 492.446242 
L 1035.342792 487.257981 
L 1036.725471 489.852112 
L 1037.974342 492.446242 
L 1039.35702 489.852112 
L 1040.695096 492.446242 
L 1042.077775 487.257981 
L 1043.415851 484.663851 
L 1044.798529 487.257981 
L 1046.181208 484.663851 
L 1048.901962 484.663851 
L 1050.240038 476.88146 
L 1051.622717 476.88146 
L 1053.005395 479.475591 
L 1054.298869 474.28733 
L 1055.681548 476.88146 
L 1057.019624 466.504939 
L 1059.740378 456.128418 
L 1061.123057 448.346027 
L 1062.505735 448.346027 
L 1063.843811 437.969506 
L 1065.22649 430.187115 
L 1069.329923 391.275161 
L 1070.578794 380.89864 
L 1071.961472 373.116249 
L 1073.299548 362.739728 
L 1074.682227 360.145598 
L 1076.020303 360.145598 
L 1077.402981 357.551467 
L 1080.123736 347.174946 
L 1081.506415 349.769077 
L 1082.844491 349.769077 
L 1084.227169 352.363207 
L 1085.609848 352.363207 
L 1086.858719 349.769077 
L 1088.241397 349.769077 
L 1089.579473 357.551467 
L 1090.962152 362.739728 
L 1092.300228 362.739728 
L 1093.682906 360.145598 
L 1095.065585 360.145598 
L 1096.403661 362.739728 
L 1097.786339 352.363207 
L 1099.124415 365.333858 
L 1100.507094 370.522119 
L 1101.889773 373.116249 
L 1103.138644 373.116249 
L 1104.521322 370.522119 
L 1105.859398 373.116249 
L 1107.242077 370.522119 
L 1108.580153 373.116249 
L 1111.34551 373.116249 
L 1114.066264 383.49277 
L 1115.40434 386.086901 
L 1116.787019 391.275161 
L 1118.169697 391.275161 
L 1119.463171 393.869291 
L 1124.90468 393.869291 
L 1126.287359 396.463422 
L 1127.670037 404.245812 
L 1129.008113 404.245812 
L 1130.390792 406.839943 
L 1131.728868 401.651682 
L 1133.111546 399.057552 
L 1134.494225 406.839943 
L 1135.743096 412.028203 
L 1137.125774 409.434073 
L 1138.46385 412.028203 
L 1139.846529 412.028203 
L 1141.184605 417.216464 
L 1142.567283 419.810594 
L 1145.288038 419.810594 
L 1146.670717 427.592985 
L 1148.008793 432.781246 
L 1149.391471 435.375376 
L 1150.77415 432.781246 
L 1152.023021 432.781246 
L 1153.405699 445.751897 
L 1154.743775 443.157767 
L 1156.126454 448.346027 
L 1157.46453 445.751897 
L 1158.847208 448.346027 
L 1161.567963 458.722548 
L 1162.950641 456.128418 
L 1164.288717 461.316679 
L 1165.671396 458.722548 
L 1167.054075 463.910809 
L 1168.302946 466.504939 
L 1169.685624 466.504939 
L 1171.0237 461.316679 
L 1172.406379 469.099069 
L 1176.509812 476.88146 
L 1177.847888 476.88146 
L 1179.230566 474.28733 
L 1180.568642 476.88146 
L 1181.951321 482.069721 
L 1186.010151 474.28733 
L 1187.348227 482.069721 
L 1188.730906 479.475591 
L 1190.068982 482.069721 
L 1192.834339 476.88146 
L 1194.172415 479.475591 
L 1195.555094 484.663851 
L 1198.275848 484.663851 
L 1199.658527 487.257981 
L 1200.907398 492.446242 
L 1203.628152 492.446242 
L 1205.010831 495.040372 
L 1206.348907 495.040372 
L 1207.731585 492.446242 
L 1210.45234 497.634503 
L 1211.835019 497.634503 
L 1214.555773 502.822763 
L 1215.938452 500.228633 
L 1217.187323 502.822763 
L 1218.570001 502.822763 
L 1219.908077 508.011024 
L 1221.290756 502.822763 
L 1222.628832 508.011024 
L 1224.01151 508.011024 
L 1225.394189 510.605154 
L 1226.732265 508.011024 
L 1228.114943 508.011024 
L 1230.835698 502.822763 
L 1232.218377 508.011024 
L 1233.467248 508.011024 
L 1234.849926 513.199284 
L 1236.188002 510.605154 
L 1237.570681 513.199284 
L 1238.908757 510.605154 
L 1240.291435 510.605154 
L 1241.674114 515.793414 
L 1243.01219 513.199284 
L 1245.732944 513.199284 
L 1247.115623 515.793414 
L 1248.498301 515.793414 
L 1249.791775 492.446242 
L 1251.174453 225.250823 
L 1252.512529 264.162777 
L 1253.895208 321.233644 
L 1255.233284 341.986686 
L 1256.615963 388.681031 
L 1257.998641 401.651682 
L 1259.336717 427.592985 
L 1260.719396 432.781246 
L 1262.057472 432.781246 
L 1263.44015 443.157767 
L 1264.822829 445.751897 
L 1266.0717 448.346027 
L 1267.454378 448.346027 
L 1268.792454 456.128418 
L 1270.175133 453.534288 
L 1271.513209 466.504939 
L 1272.895887 471.6932 
L 1274.278566 482.069721 
L 1278.337397 505.416893 
L 1279.720075 502.822763 
L 1281.102754 508.011024 
L 1282.351625 513.199284 
L 1286.455058 513.199284 
L 1287.793134 515.793414 
L 1289.175812 510.605154 
L 1290.558491 515.793414 
L 1291.896567 510.605154 
L 1296 518.387545 
L 1296 518.387545 
" style="fill:none;stroke:#ff00ff;stroke-linecap:square;stroke-width:1.5;"/>
   </g>
   <g id="patch_3">
    <path d="M 180 630 
L 180 86.4 
" style="fill:none;stroke:#000000;stroke-linecap:square;stroke-linejoin:miter;stroke-width:0.8;"/>
   </g>
   <g id="patch_4">
    <path d="M 1296 630 
L 1296 86.4 
" style="fill:none;stroke:#000000;stroke-linecap:square;stroke-linejoin:miter;stroke-width:0.8;"/>
   </g>
   <g id="patch_5">
    <path d="M 180 630 
L 1296 630 
" style="fill:none;stroke:#000000;stroke-linecap:square;stroke-linejoin:miter;stroke-width:0.8;"/>
   </g>
   <g id="patch_6">
    <path d="M 180 86.4 
L 1296 86.4 
" style="fill:none;stroke:#000000;stroke-linecap:square;stroke-linejoin:miter;stroke-width:0.8;"/>
   </g>
   <g id="text_23">
    <!-- Interest Rate and Unemployement Rate Over Time -->
    <defs>
     <path d="M 9.8125 72.90625 
L 19.671875 72.90625 
L 19.671875 0 
L 9.8125 0 
z
" id="DejaVuSans-73"/>
     <path d="M 41.109375 46.296875 
Q 39.59375 47.171875 37.8125 47.578125 
Q 36.03125 48 33.890625 48 
Q 26.265625 48 22.1875 43.046875 
Q 18.109375 38.09375 18.109375 28.8125 
L 18.109375 0 
L 9.078125 0 
L 9.078125 54.6875 
L 18.109375 54.6875 
L 18.109375 46.1875 
Q 20.953125 51.171875 25.484375 53.578125 
Q 30.03125 56 36.53125 56 
Q 37.453125 56 38.578125 55.875 
Q 39.703125 55.765625 41.0625 55.515625 
z
" id="DejaVuSans-114"/>
     <path d="M 45.40625 46.390625 
L 45.40625 75.984375 
L 54.390625 75.984375 
L 54.390625 0 
L 45.40625 0 
L 45.40625 8.203125 
Q 42.578125 3.328125 38.25 0.953125 
Q 33.9375 -1.421875 27.875 -1.421875 
Q 17.96875 -1.421875 11.734375 6.484375 
Q 5.515625 14.40625 5.515625 27.296875 
Q 5.515625 40.1875 11.734375 48.09375 
Q 17.96875 56 27.875 56 
Q 33.9375 56 38.25 53.625 
Q 42.578125 51.265625 45.40625 46.390625 
z
M 14.796875 27.296875 
Q 14.796875 17.390625 18.875 11.75 
Q 22.953125 6.109375 30.078125 6.109375 
Q 37.203125 6.109375 41.296875 11.75 
Q 45.40625 17.390625 45.40625 27.296875 
Q 45.40625 37.203125 41.296875 42.84375 
Q 37.203125 48.484375 30.078125 48.484375 
Q 22.953125 48.484375 18.875 42.84375 
Q 14.796875 37.203125 14.796875 27.296875 
z
" id="DejaVuSans-100"/>
     <path d="M 8.6875 72.90625 
L 18.609375 72.90625 
L 18.609375 28.609375 
Q 18.609375 16.890625 22.84375 11.734375 
Q 27.09375 6.59375 36.625 6.59375 
Q 46.09375 6.59375 50.34375 11.734375 
Q 54.59375 16.890625 54.59375 28.609375 
L 54.59375 72.90625 
L 64.5 72.90625 
L 64.5 27.390625 
Q 64.5 13.140625 57.4375 5.859375 
Q 50.390625 -1.421875 36.625 -1.421875 
Q 22.796875 -1.421875 15.734375 5.859375 
Q 8.6875 13.140625 8.6875 27.390625 
z
" id="DejaVuSans-85"/>
     <path d="M 52 44.1875 
Q 55.375 50.25 60.0625 53.125 
Q 64.75 56 71.09375 56 
Q 79.640625 56 84.28125 50.015625 
Q 88.921875 44.046875 88.921875 33.015625 
L 88.921875 0 
L 79.890625 0 
L 79.890625 32.71875 
Q 79.890625 40.578125 77.09375 44.375 
Q 74.3125 48.1875 68.609375 48.1875 
Q 61.625 48.1875 57.5625 43.546875 
Q 53.515625 38.921875 53.515625 30.90625 
L 53.515625 0 
L 44.484375 0 
L 44.484375 32.71875 
Q 44.484375 40.625 41.703125 44.40625 
Q 38.921875 48.1875 33.109375 48.1875 
Q 26.21875 48.1875 22.15625 43.53125 
Q 18.109375 38.875 18.109375 30.90625 
L 18.109375 0 
L 9.078125 0 
L 9.078125 54.6875 
L 18.109375 54.6875 
L 18.109375 46.1875 
Q 21.1875 51.21875 25.484375 53.609375 
Q 29.78125 56 35.6875 56 
Q 41.65625 56 45.828125 52.96875 
Q 50 49.953125 52 44.1875 
z
" id="DejaVuSans-109"/>
     <path d="M 18.109375 8.203125 
L 18.109375 -20.796875 
L 9.078125 -20.796875 
L 9.078125 54.6875 
L 18.109375 54.6875 
L 18.109375 46.390625 
Q 20.953125 51.265625 25.265625 53.625 
Q 29.59375 56 35.59375 56 
Q 45.5625 56 51.78125 48.09375 
Q 58.015625 40.1875 58.015625 27.296875 
Q 58.015625 14.40625 51.78125 6.484375 
Q 45.5625 -1.421875 35.59375 -1.421875 
Q 29.59375 -1.421875 25.265625 0.953125 
Q 20.953125 3.328125 18.109375 8.203125 
z
M 48.6875 27.296875 
Q 48.6875 37.203125 44.609375 42.84375 
Q 40.53125 48.484375 33.40625 48.484375 
Q 26.265625 48.484375 22.1875 42.84375 
Q 18.109375 37.203125 18.109375 27.296875 
Q 18.109375 17.390625 22.1875 11.75 
Q 26.265625 6.109375 33.40625 6.109375 
Q 40.53125 6.109375 44.609375 11.75 
Q 48.6875 17.390625 48.6875 27.296875 
z
" id="DejaVuSans-112"/>
     <path d="M 9.421875 75.984375 
L 18.40625 75.984375 
L 18.40625 0 
L 9.421875 0 
z
" id="DejaVuSans-108"/>
     <path d="M 39.40625 66.21875 
Q 28.65625 66.21875 22.328125 58.203125 
Q 16.015625 50.203125 16.015625 36.375 
Q 16.015625 22.609375 22.328125 14.59375 
Q 28.65625 6.59375 39.40625 6.59375 
Q 50.140625 6.59375 56.421875 14.59375 
Q 62.703125 22.609375 62.703125 36.375 
Q 62.703125 50.203125 56.421875 58.203125 
Q 50.140625 66.21875 39.40625 66.21875 
z
M 39.40625 74.21875 
Q 54.734375 74.21875 63.90625 63.9375 
Q 73.09375 53.65625 73.09375 36.375 
Q 73.09375 19.140625 63.90625 8.859375 
Q 54.734375 -1.421875 39.40625 -1.421875 
Q 24.03125 -1.421875 14.8125 8.828125 
Q 5.609375 19.09375 5.609375 36.375 
Q 5.609375 53.65625 14.8125 63.9375 
Q 24.03125 74.21875 39.40625 74.21875 
z
" id="DejaVuSans-79"/>
     <path d="M 2.984375 54.6875 
L 12.5 54.6875 
L 29.59375 8.796875 
L 46.6875 54.6875 
L 56.203125 54.6875 
L 35.6875 0 
L 23.484375 0 
z
" id="DejaVuSans-118"/>
     <path d="M -0.296875 72.90625 
L 61.375 72.90625 
L 61.375 64.59375 
L 35.5 64.59375 
L 35.5 0 
L 25.59375 0 
L 25.59375 64.59375 
L -0.296875 64.59375 
z
" id="DejaVuSans-84"/>
     <path d="M 9.421875 54.6875 
L 18.40625 54.6875 
L 18.40625 0 
L 9.421875 0 
z
M 9.421875 75.984375 
L 18.40625 75.984375 
L 18.40625 64.59375 
L 9.421875 64.59375 
z
" id="DejaVuSans-105"/>
    </defs>
    <g transform="translate(585.718125 80.4)scale(0.12 -0.12)">
     <use xlink:href="#DejaVuSans-73"/>
     <use x="29.492188" xlink:href="#DejaVuSans-110"/>
     <use x="92.871094" xlink:href="#DejaVuSans-116"/>
     <use x="132.080078" xlink:href="#DejaVuSans-101"/>
     <use x="193.603516" xlink:href="#DejaVuSans-114"/>
     <use x="232.466797" xlink:href="#DejaVuSans-101"/>
     <use x="293.990234" xlink:href="#DejaVuSans-115"/>
     <use x="346.089844" xlink:href="#DejaVuSans-116"/>
     <use x="385.298828" xlink:href="#DejaVuSans-32"/>
     <use x="417.085938" xlink:href="#DejaVuSans-82"/>
     <use x="484.318359" xlink:href="#DejaVuSans-97"/>
     <use x="545.597656" xlink:href="#DejaVuSans-116"/>
     <use x="584.806641" xlink:href="#DejaVuSans-101"/>
     <use x="646.330078" xlink:href="#DejaVuSans-32"/>
     <use x="678.117188" xlink:href="#DejaVuSans-97"/>
     <use x="739.396484" xlink:href="#DejaVuSans-110"/>
     <use x="802.775391" xlink:href="#DejaVuSans-100"/>
     <use x="866.251953" xlink:href="#DejaVuSans-32"/>
     <use x="898.039062" xlink:href="#DejaVuSans-85"/>
     <use x="971.232422" xlink:href="#DejaVuSans-110"/>
     <use x="1034.611328" xlink:href="#DejaVuSans-101"/>
     <use x="1096.134766" xlink:href="#DejaVuSans-109"/>
     <use x="1193.546875" xlink:href="#DejaVuSans-112"/>
     <use x="1257.023438" xlink:href="#DejaVuSans-108"/>
     <use x="1284.806641" xlink:href="#DejaVuSans-111"/>
     <use x="1345.988281" xlink:href="#DejaVuSans-121"/>
     <use x="1405.167969" xlink:href="#DejaVuSans-101"/>
     <use x="1466.691406" xlink:href="#DejaVuSans-109"/>
     <use x="1564.103516" xlink:href="#DejaVuSans-101"/>
     <use x="1625.626953" xlink:href="#DejaVuSans-110"/>
     <use x="1689.005859" xlink:href="#DejaVuSans-116"/>
     <use x="1728.214844" xlink:href="#DejaVuSans-32"/>
     <use x="1760.001953" xlink:href="#DejaVuSans-82"/>
     <use x="1827.234375" xlink:href="#DejaVuSans-97"/>
     <use x="1888.513672" xlink:href="#DejaVuSans-116"/>
     <use x="1927.722656" xlink:href="#DejaVuSans-101"/>
     <use x="1989.246094" xlink:href="#DejaVuSans-32"/>
     <use x="2021.033203" xlink:href="#DejaVuSans-79"/>
     <use x="2099.744141" xlink:href="#DejaVuSans-118"/>
     <use x="2158.923828" xlink:href="#DejaVuSans-101"/>
     <use x="2220.447266" xlink:href="#DejaVuSans-114"/>
     <use x="2261.560547" xlink:href="#DejaVuSans-32"/>
     <use x="2293.347656" xlink:href="#DejaVuSans-84"/>
     <use x="2351.306641" xlink:href="#DejaVuSans-105"/>
     <use x="2379.089844" xlink:href="#DejaVuSans-109"/>
     <use x="2476.501953" xlink:href="#DejaVuSans-101"/>
    </g>
   </g>
   <g id="legend_1">
    <g id="patch_7">
     <path d="M 1154.03125 123.75625 
L 1289 123.75625 
Q 1291 123.75625 1291 121.75625 
L 1291 93.4 
Q 1291 91.4 1289 91.4 
L 1154.03125 91.4 
Q 1152.03125 91.4 1152.03125 93.4 
L 1152.03125 121.75625 
Q 1152.03125 123.75625 1154.03125 123.75625 
z
" style="fill:#ffffff;opacity:0.8;stroke:#cccccc;stroke-linejoin:miter;"/>
    </g>
    <g id="line2d_23">
     <path d="M 1156.03125 99.498437 
L 1176.03125 99.498437 
" style="fill:none;stroke:#00ffff;stroke-linecap:square;stroke-width:1.5;"/>
    </g>
    <g id="line2d_24"/>
    <g id="text_24">
     <!-- Interest Rate -->
     <g transform="translate(1184.03125 102.998437)scale(0.1 -0.1)">
      <use xlink:href="#DejaVuSans-73"/>
      <use x="29.492188" xlink:href="#DejaVuSans-110"/>
      <use x="92.871094" xlink:href="#DejaVuSans-116"/>
      <use x="132.080078" xlink:href="#DejaVuSans-101"/>
      <use x="193.603516" xlink:href="#DejaVuSans-114"/>
      <use x="232.466797" xlink:href="#DejaVuSans-101"/>
      <use x="293.990234" xlink:href="#DejaVuSans-115"/>
      <use x="346.089844" xlink:href="#DejaVuSans-116"/>
      <use x="385.298828" xlink:href="#DejaVuSans-32"/>
      <use x="417.085938" xlink:href="#DejaVuSans-82"/>
      <use x="484.318359" xlink:href="#DejaVuSans-97"/>
      <use x="545.597656" xlink:href="#DejaVuSans-116"/>
      <use x="584.806641" xlink:href="#DejaVuSans-101"/>
     </g>
    </g>
    <g id="line2d_25">
     <path d="M 1156.03125 114.176562 
L 1176.03125 114.176562 
" style="fill:none;stroke:#ff00ff;stroke-linecap:square;stroke-width:1.5;"/>
    </g>
    <g id="line2d_26"/>
    <g id="text_25">
     <!-- Unemployment Rate -->
     <g transform="translate(1184.03125 117.676562)scale(0.1 -0.1)">
      <use xlink:href="#DejaVuSans-85"/>
      <use x="73.193359" xlink:href="#DejaVuSans-110"/>
      <use x="136.572266" xlink:href="#DejaVuSans-101"/>
      <use x="198.095703" xlink:href="#DejaVuSans-109"/>
      <use x="295.507812" xlink:href="#DejaVuSans-112"/>
      <use x="358.984375" xlink:href="#DejaVuSans-108"/>
      <use x="386.767578" xlink:href="#DejaVuSans-111"/>
      <use x="447.949219" xlink:href="#DejaVuSans-121"/>
      <use x="507.128906" xlink:href="#DejaVuSans-109"/>
      <use x="604.541016" xlink:href="#DejaVuSans-101"/>
      <use x="666.064453" xlink:href="#DejaVuSans-110"/>
      <use x="729.443359" xlink:href="#DejaVuSans-116"/>
      <use x="768.652344" xlink:href="#DejaVuSans-32"/>
      <use x="800.439453" xlink:href="#DejaVuSans-82"/>
      <use x="867.671875" xlink:href="#DejaVuSans-97"/>
      <use x="928.951172" xlink:href="#DejaVuSans-116"/>
      <use x="968.160156" xlink:href="#DejaVuSans-101"/>
     </g>
    </g>
   </g>
  </g>
 </g>
 <defs>
  <clipPath id="pbb2bf7d057">
   <rect height="543.6" width="1116" x="180" y="86.4"/>
  </clipPath>
 </defs>
</svg>
