<?xml version="1.0" encoding="utf-8" standalone="no"?>
<!DOCTYPE svg PUBLIC "-//W3C//DTD SVG 1.1//EN"
  "http://www.w3.org/Graphics/SVG/1.1/DTD/svg11.dtd">
<!-- Created with matplotlib (https://matplotlib.org/) -->
<svg height="288pt" version="1.1" viewBox="0 0 432 288" width="432pt" xmlns="http://www.w3.org/2000/svg" xmlns:xlink="http://www.w3.org/1999/xlink">
 <defs>
  <style type="text/css">
*{stroke-linecap:butt;stroke-linejoin:round;}
  </style>
 </defs>
 <g id="figure_1">
  <g id="patch_1">
   <path d="M 0 288 
L 432 288 
L 432 0 
L 0 0 
z
" style="fill:#ffffff;"/>
  </g>
  <g id="axes_1">
   <g id="patch_2">
    <path d="M 54 252 
L 388.8 252 
L 388.8 34.56 
L 54 34.56 
z
" style="fill:#ffffff;"/>
   </g>
   <g id="PathCollection_1">
    <defs>
     <path d="M 0 3 
C 0.795609 3 1.55874 2.683901 2.12132 2.12132 
C 2.683901 1.55874 3 0.795609 3 0 
C 3 -0.795609 2.683901 -1.55874 2.12132 -2.12132 
C 1.55874 -2.683901 0.795609 -3 0 -3 
C -0.795609 -3 -1.55874 -2.683901 -2.12132 -2.12132 
C -2.683901 -1.55874 -3 -0.795609 -3 0 
C -3 0.795609 -2.683901 1.55874 -2.12132 2.12132 
C -1.55874 2.683901 -0.795609 3 0 3 
z
" id="m97bab1cf3f" style="stroke:#1f77b4;"/>
    </defs>
    <g clip-path="url(#p1247623bc0)">
     <use style="fill:#1f77b4;stroke:#1f77b4;" x="131.980173" xlink:href="#m97bab1cf3f" y="185.646152"/>
     <use style="fill:#1f77b4;stroke:#1f77b4;" x="91.312964" xlink:href="#m97bab1cf3f" y="185.723324"/>
     <use style="fill:#1f77b4;stroke:#1f77b4;" x="102.520463" xlink:href="#m97bab1cf3f" y="185.746073"/>
     <use style="fill:#1f77b4;stroke:#1f77b4;" x="114.848711" xlink:href="#m97bab1cf3f" y="185.718131"/>
     <use style="fill:#1f77b4;stroke:#1f77b4;" x="123.81471" xlink:href="#m97bab1cf3f" y="185.646217"/>
     <use style="fill:#1f77b4;stroke:#1f77b4;" x="130.539209" xlink:href="#m97bab1cf3f" y="185.56051"/>
     <use style="fill:#1f77b4;stroke:#1f77b4;" x="138.864779" xlink:href="#m97bab1cf3f" y="185.510306"/>
     <use style="fill:#1f77b4;stroke:#1f77b4;" x="147.19035" xlink:href="#m97bab1cf3f" y="185.540974"/>
     <use style="fill:#1f77b4;stroke:#1f77b4;" x="141.906815" xlink:href="#m97bab1cf3f" y="185.557233"/>
     <use style="fill:#1f77b4;stroke:#1f77b4;" x="168.964918" xlink:href="#m97bab1cf3f" y="185.486454"/>
     <use style="fill:#1f77b4;stroke:#1f77b4;" x="211.873626" xlink:href="#m97bab1cf3f" y="185.383418"/>
     <use style="fill:#1f77b4;stroke:#1f77b4;" x="134.38178" xlink:href="#m97bab1cf3f" y="185.325912"/>
     <use style="fill:#1f77b4;stroke:#1f77b4;" x="124.295031" xlink:href="#m97bab1cf3f" y="185.21497"/>
     <use style="fill:#1f77b4;stroke:#1f77b4;" x="163.201062" xlink:href="#m97bab1cf3f" y="185.016387"/>
     <use style="fill:#1f77b4;stroke:#1f77b4;" x="222.600803" xlink:href="#m97bab1cf3f" y="184.971346"/>
     <use style="fill:#1f77b4;stroke:#1f77b4;" x="182.253809" xlink:href="#m97bab1cf3f" y="184.81756"/>
     <use style="fill:#1f77b4;stroke:#1f77b4;" x="146.0696" xlink:href="#m97bab1cf3f" y="184.893385"/>
     <use style="fill:#1f77b4;stroke:#1f77b4;" x="141.906815" xlink:href="#m97bab1cf3f" y="184.725632"/>
     <use style="fill:#1f77b4;stroke:#1f77b4;" x="175.369203" xlink:href="#m97bab1cf3f" y="184.928535"/>
     <use style="fill:#1f77b4;stroke:#1f77b4;" x="229.325302" xlink:href="#m97bab1cf3f" y="184.698929"/>
     <use style="fill:#1f77b4;stroke:#1f77b4;" x="289.365473" xlink:href="#m97bab1cf3f" y="184.59612"/>
     <use style="fill:#1f77b4;stroke:#1f77b4;" x="373.581818" xlink:href="#m97bab1cf3f" y="184.558434"/>
     <use style="fill:#1f77b4;stroke:#1f77b4;" x="279.759045" xlink:href="#m97bab1cf3f" y="184.484747"/>
     <use style="fill:#1f77b4;stroke:#1f77b4;" x="207.070413" xlink:href="#m97bab1cf3f" y="184.28025"/>
     <use style="fill:#1f77b4;stroke:#1f77b4;" x="221.159839" xlink:href="#m97bab1cf3f" y="184.04649"/>
     <use style="fill:#1f77b4;stroke:#1f77b4;" x="201.786878" xlink:href="#m97bab1cf3f" y="183.650696"/>
     <use style="fill:#1f77b4;stroke:#1f77b4;" x="198.424628" xlink:href="#m97bab1cf3f" y="183.720441"/>
     <use style="fill:#1f77b4;stroke:#1f77b4;" x="171.046311" xlink:href="#m97bab1cf3f" y="183.94242"/>
     <use style="fill:#1f77b4;stroke:#1f77b4;" x="177.450595" xlink:href="#m97bab1cf3f" y="183.627803"/>
     <use style="fill:#1f77b4;stroke:#1f77b4;" x="214.115126" xlink:href="#m97bab1cf3f" y="183.344873"/>
     <use style="fill:#1f77b4;stroke:#1f77b4;" x="199.865592" xlink:href="#m97bab1cf3f" y="183.240296"/>
     <use style="fill:#1f77b4;stroke:#1f77b4;" x="178.731452" xlink:href="#m97bab1cf3f" y="183.060418"/>
     <use style="fill:#1f77b4;stroke:#1f77b4;" x="132.620602" xlink:href="#m97bab1cf3f" y="182.712552"/>
     <use style="fill:#1f77b4;stroke:#1f77b4;" x="116.449782" xlink:href="#m97bab1cf3f" y="182.570222"/>
     <use style="fill:#1f77b4;stroke:#1f77b4;" x="116.930104" xlink:href="#m97bab1cf3f" y="181.614775"/>
     <use style="fill:#1f77b4;stroke:#1f77b4;" x="156.63667" xlink:href="#m97bab1cf3f" y="180.254841"/>
     <use style="fill:#1f77b4;stroke:#1f77b4;" x="157.116991" xlink:href="#m97bab1cf3f" y="179.222656"/>
     <use style="fill:#1f77b4;stroke:#1f77b4;" x="152.15367" xlink:href="#m97bab1cf3f" y="178.440863"/>
     <use style="fill:#1f77b4;stroke:#1f77b4;" x="157.116991" xlink:href="#m97bab1cf3f" y="177.902083"/>
     <use style="fill:#1f77b4;stroke:#1f77b4;" x="142.227029" xlink:href="#m97bab1cf3f" y="177.383156"/>
     <use style="fill:#1f77b4;stroke:#1f77b4;" x="155.355813" xlink:href="#m97bab1cf3f" y="176.445636"/>
     <use style="fill:#1f77b4;stroke:#1f77b4;" x="163.84149" xlink:href="#m97bab1cf3f" y="175.422638"/>
     <use style="fill:#1f77b4;stroke:#1f77b4;" x="95.795964" xlink:href="#m97bab1cf3f" y="174.37483"/>
     <use style="fill:#1f77b4;stroke:#1f77b4;" x="87.950715" xlink:href="#m97bab1cf3f" y="172.85899"/>
     <use style="fill:#1f77b4;stroke:#1f77b4;" x="84.108144" xlink:href="#m97bab1cf3f" y="170.501728"/>
     <use style="fill:#1f77b4;stroke:#1f77b4;" x="104.601855" xlink:href="#m97bab1cf3f" y="167.860373"/>
     <use style="fill:#1f77b4;stroke:#1f77b4;" x="136.783387" xlink:href="#m97bab1cf3f" y="164.136117"/>
     <use style="fill:#1f77b4;stroke:#1f77b4;" x="152.15367" xlink:href="#m97bab1cf3f" y="157.759111"/>
     <use style="fill:#1f77b4;stroke:#1f77b4;" x="131.179638" xlink:href="#m97bab1cf3f" y="149.418753"/>
     <use style="fill:#1f77b4;stroke:#1f77b4;" x="70.499039" xlink:href="#m97bab1cf3f" y="145.365104"/>
     <use style="fill:#1f77b4;stroke:#1f77b4;" x="69.85861" xlink:href="#m97bab1cf3f" y="137.492137"/>
     <use style="fill:#1f77b4;stroke:#1f77b4;" x="70.819253" xlink:href="#m97bab1cf3f" y="125.793375"/>
     <use style="fill:#1f77b4;stroke:#1f77b4;" x="69.378289" xlink:href="#m97bab1cf3f" y="117.958204"/>
     <use style="fill:#1f77b4;stroke:#1f77b4;" x="70.338932" xlink:href="#m97bab1cf3f" y="109.664087"/>
     <use style="fill:#1f77b4;stroke:#1f77b4;" x="69.218182" xlink:href="#m97bab1cf3f" y="102.431721"/>
     <use style="fill:#1f77b4;stroke:#1f77b4;" x="69.85861" xlink:href="#m97bab1cf3f" y="97.751132"/>
     <use style="fill:#1f77b4;stroke:#1f77b4;" x="73.541074" xlink:href="#m97bab1cf3f" y="96.379213"/>
     <use style="fill:#1f77b4;stroke:#1f77b4;" x="78.504395" xlink:href="#m97bab1cf3f" y="87.773866"/>
     <use style="fill:#1f77b4;stroke:#1f77b4;" x="90.672536" xlink:href="#m97bab1cf3f" y="75.115836"/>
     <use style="fill:#1f77b4;stroke:#1f77b4;" x="106.523141" xlink:href="#m97bab1cf3f" y="72.039065"/>
     <use style="fill:#1f77b4;stroke:#1f77b4;" x="92.914036" xlink:href="#m97bab1cf3f" y="68.781609"/>
     <use style="fill:#1f77b4;stroke:#1f77b4;" x="69.538396" xlink:href="#m97bab1cf3f" y="44.443636"/>
    </g>
   </g>
   <g id="matplotlib.axis_1">
    <g id="xtick_1">
     <g id="line2d_1">
      <defs>
       <path d="M 0 0 
L 0 3.5 
" id="mb00b613030" style="stroke:#000000;stroke-width:0.8;"/>
      </defs>
      <g>
       <use style="stroke:#000000;stroke-width:0.8;" x="68.097432" xlink:href="#mb00b613030" y="252"/>
      </g>
     </g>
     <g id="text_1">
      <!-- 0.0 -->
      <defs>
       <path d="M 31.78125 66.40625 
Q 24.171875 66.40625 20.328125 58.90625 
Q 16.5 51.421875 16.5 36.375 
Q 16.5 21.390625 20.328125 13.890625 
Q 24.171875 6.390625 31.78125 6.390625 
Q 39.453125 6.390625 43.28125 13.890625 
Q 47.125 21.390625 47.125 36.375 
Q 47.125 51.421875 43.28125 58.90625 
Q 39.453125 66.40625 31.78125 66.40625 
z
M 31.78125 74.21875 
Q 44.046875 74.21875 50.515625 64.515625 
Q 56.984375 54.828125 56.984375 36.375 
Q 56.984375 17.96875 50.515625 8.265625 
Q 44.046875 -1.421875 31.78125 -1.421875 
Q 19.53125 -1.421875 13.0625 8.265625 
Q 6.59375 17.96875 6.59375 36.375 
Q 6.59375 54.828125 13.0625 64.515625 
Q 19.53125 74.21875 31.78125 74.21875 
z
" id="DejaVuSans-48"/>
       <path d="M 10.6875 12.40625 
L 21 12.40625 
L 21 0 
L 10.6875 0 
z
" id="DejaVuSans-46"/>
      </defs>
      <g transform="translate(60.145869 266.598437)scale(0.1 -0.1)">
       <use xlink:href="#DejaVuSans-48"/>
       <use x="63.623047" xlink:href="#DejaVuSans-46"/>
       <use x="95.410156" xlink:href="#DejaVuSans-48"/>
      </g>
     </g>
    </g>
    <g id="xtick_2">
     <g id="line2d_2">
      <g>
       <use style="stroke:#000000;stroke-width:0.8;" x="108.124212" xlink:href="#mb00b613030" y="252"/>
      </g>
     </g>
     <g id="text_2">
      <!-- 2.5 -->
      <defs>
       <path d="M 19.1875 8.296875 
L 53.609375 8.296875 
L 53.609375 0 
L 7.328125 0 
L 7.328125 8.296875 
Q 12.9375 14.109375 22.625 23.890625 
Q 32.328125 33.6875 34.8125 36.53125 
Q 39.546875 41.84375 41.421875 45.53125 
Q 43.3125 49.21875 43.3125 52.78125 
Q 43.3125 58.59375 39.234375 62.25 
Q 35.15625 65.921875 28.609375 65.921875 
Q 23.96875 65.921875 18.8125 64.3125 
Q 13.671875 62.703125 7.8125 59.421875 
L 7.8125 69.390625 
Q 13.765625 71.78125 18.9375 73 
Q 24.125 74.21875 28.421875 74.21875 
Q 39.75 74.21875 46.484375 68.546875 
Q 53.21875 62.890625 53.21875 53.421875 
Q 53.21875 48.921875 51.53125 44.890625 
Q 49.859375 40.875 45.40625 35.40625 
Q 44.1875 33.984375 37.640625 27.21875 
Q 31.109375 20.453125 19.1875 8.296875 
z
" id="DejaVuSans-50"/>
       <path d="M 10.796875 72.90625 
L 49.515625 72.90625 
L 49.515625 64.59375 
L 19.828125 64.59375 
L 19.828125 46.734375 
Q 21.96875 47.46875 24.109375 47.828125 
Q 26.265625 48.1875 28.421875 48.1875 
Q 40.625 48.1875 47.75 41.5 
Q 54.890625 34.8125 54.890625 23.390625 
Q 54.890625 11.625 47.5625 5.09375 
Q 40.234375 -1.421875 26.90625 -1.421875 
Q 22.3125 -1.421875 17.546875 -0.640625 
Q 12.796875 0.140625 7.71875 1.703125 
L 7.71875 11.625 
Q 12.109375 9.234375 16.796875 8.0625 
Q 21.484375 6.890625 26.703125 6.890625 
Q 35.15625 6.890625 40.078125 11.328125 
Q 45.015625 15.765625 45.015625 23.390625 
Q 45.015625 31 40.078125 35.4375 
Q 35.15625 39.890625 26.703125 39.890625 
Q 22.75 39.890625 18.8125 39.015625 
Q 14.890625 38.140625 10.796875 36.28125 
z
" id="DejaVuSans-53"/>
      </defs>
      <g transform="translate(100.17265 266.598437)scale(0.1 -0.1)">
       <use xlink:href="#DejaVuSans-50"/>
       <use x="63.623047" xlink:href="#DejaVuSans-46"/>
       <use x="95.410156" xlink:href="#DejaVuSans-53"/>
      </g>
     </g>
    </g>
    <g id="xtick_3">
     <g id="line2d_3">
      <g>
       <use style="stroke:#000000;stroke-width:0.8;" x="148.150992" xlink:href="#mb00b613030" y="252"/>
      </g>
     </g>
     <g id="text_3">
      <!-- 5.0 -->
      <g transform="translate(140.19943 266.598437)scale(0.1 -0.1)">
       <use xlink:href="#DejaVuSans-53"/>
       <use x="63.623047" xlink:href="#DejaVuSans-46"/>
       <use x="95.410156" xlink:href="#DejaVuSans-48"/>
      </g>
     </g>
    </g>
    <g id="xtick_4">
     <g id="line2d_4">
      <g>
       <use style="stroke:#000000;stroke-width:0.8;" x="188.177772" xlink:href="#mb00b613030" y="252"/>
      </g>
     </g>
     <g id="text_4">
      <!-- 7.5 -->
      <defs>
       <path d="M 8.203125 72.90625 
L 55.078125 72.90625 
L 55.078125 68.703125 
L 28.609375 0 
L 18.3125 0 
L 43.21875 64.59375 
L 8.203125 64.59375 
z
" id="DejaVuSans-55"/>
      </defs>
      <g transform="translate(180.22621 266.598437)scale(0.1 -0.1)">
       <use xlink:href="#DejaVuSans-55"/>
       <use x="63.623047" xlink:href="#DejaVuSans-46"/>
       <use x="95.410156" xlink:href="#DejaVuSans-53"/>
      </g>
     </g>
    </g>
    <g id="xtick_5">
     <g id="line2d_5">
      <g>
       <use style="stroke:#000000;stroke-width:0.8;" x="228.204553" xlink:href="#mb00b613030" y="252"/>
      </g>
     </g>
     <g id="text_5">
      <!-- 10.0 -->
      <defs>
       <path d="M 12.40625 8.296875 
L 28.515625 8.296875 
L 28.515625 63.921875 
L 10.984375 60.40625 
L 10.984375 69.390625 
L 28.421875 72.90625 
L 38.28125 72.90625 
L 38.28125 8.296875 
L 54.390625 8.296875 
L 54.390625 0 
L 12.40625 0 
z
" id="DejaVuSans-49"/>
      </defs>
      <g transform="translate(217.07174 266.598437)scale(0.1 -0.1)">
       <use xlink:href="#DejaVuSans-49"/>
       <use x="63.623047" xlink:href="#DejaVuSans-48"/>
       <use x="127.246094" xlink:href="#DejaVuSans-46"/>
       <use x="159.033203" xlink:href="#DejaVuSans-48"/>
      </g>
     </g>
    </g>
    <g id="xtick_6">
     <g id="line2d_6">
      <g>
       <use style="stroke:#000000;stroke-width:0.8;" x="268.231333" xlink:href="#mb00b613030" y="252"/>
      </g>
     </g>
     <g id="text_6">
      <!-- 12.5 -->
      <g transform="translate(257.09852 266.598437)scale(0.1 -0.1)">
       <use xlink:href="#DejaVuSans-49"/>
       <use x="63.623047" xlink:href="#DejaVuSans-50"/>
       <use x="127.246094" xlink:href="#DejaVuSans-46"/>
       <use x="159.033203" xlink:href="#DejaVuSans-53"/>
      </g>
     </g>
    </g>
    <g id="xtick_7">
     <g id="line2d_7">
      <g>
       <use style="stroke:#000000;stroke-width:0.8;" x="308.258113" xlink:href="#mb00b613030" y="252"/>
      </g>
     </g>
     <g id="text_7">
      <!-- 15.0 -->
      <g transform="translate(297.1253 266.598437)scale(0.1 -0.1)">
       <use xlink:href="#DejaVuSans-49"/>
       <use x="63.623047" xlink:href="#DejaVuSans-53"/>
       <use x="127.246094" xlink:href="#DejaVuSans-46"/>
       <use x="159.033203" xlink:href="#DejaVuSans-48"/>
      </g>
     </g>
    </g>
    <g id="xtick_8">
     <g id="line2d_8">
      <g>
       <use style="stroke:#000000;stroke-width:0.8;" x="348.284893" xlink:href="#mb00b613030" y="252"/>
      </g>
     </g>
     <g id="text_8">
      <!-- 17.5 -->
      <g transform="translate(337.152081 266.598437)scale(0.1 -0.1)">
       <use xlink:href="#DejaVuSans-49"/>
       <use x="63.623047" xlink:href="#DejaVuSans-55"/>
       <use x="127.246094" xlink:href="#DejaVuSans-46"/>
       <use x="159.033203" xlink:href="#DejaVuSans-53"/>
      </g>
     </g>
    </g>
    <g id="xtick_9">
     <g id="line2d_9">
      <g>
       <use style="stroke:#000000;stroke-width:0.8;" x="388.311673" xlink:href="#mb00b613030" y="252"/>
      </g>
     </g>
     <g id="text_9">
      <!-- 20.0 -->
      <g transform="translate(377.178861 266.598437)scale(0.1 -0.1)">
       <use xlink:href="#DejaVuSans-50"/>
       <use x="63.623047" xlink:href="#DejaVuSans-48"/>
       <use x="127.246094" xlink:href="#DejaVuSans-46"/>
       <use x="159.033203" xlink:href="#DejaVuSans-48"/>
      </g>
     </g>
    </g>
   </g>
   <g id="matplotlib.axis_2">
    <g id="ytick_1">
     <g id="line2d_10">
      <defs>
       <path d="M 0 0 
L -3.5 0 
" id="m2047f6062e" style="stroke:#000000;stroke-width:0.8;"/>
      </defs>
      <g>
       <use style="stroke:#000000;stroke-width:0.8;" x="54" xlink:href="#m2047f6062e" y="226.068846"/>
      </g>
     </g>
     <g id="text_10">
      <!-- −0.5 -->
      <defs>
       <path d="M 10.59375 35.5 
L 73.1875 35.5 
L 73.1875 27.203125 
L 10.59375 27.203125 
z
" id="DejaVuSans-8722"/>
      </defs>
      <g transform="translate(22.717187 229.868065)scale(0.1 -0.1)">
       <use xlink:href="#DejaVuSans-8722"/>
       <use x="83.789062" xlink:href="#DejaVuSans-48"/>
       <use x="147.412109" xlink:href="#DejaVuSans-46"/>
       <use x="179.199219" xlink:href="#DejaVuSans-53"/>
      </g>
     </g>
    </g>
    <g id="ytick_2">
     <g id="line2d_11">
      <g>
       <use style="stroke:#000000;stroke-width:0.8;" x="54" xlink:href="#m2047f6062e" y="186.123234"/>
      </g>
     </g>
     <g id="text_11">
      <!-- 0.0 -->
      <g transform="translate(31.096875 189.922453)scale(0.1 -0.1)">
       <use xlink:href="#DejaVuSans-48"/>
       <use x="63.623047" xlink:href="#DejaVuSans-46"/>
       <use x="95.410156" xlink:href="#DejaVuSans-48"/>
      </g>
     </g>
    </g>
    <g id="ytick_3">
     <g id="line2d_12">
      <g>
       <use style="stroke:#000000;stroke-width:0.8;" x="54" xlink:href="#m2047f6062e" y="146.177622"/>
      </g>
     </g>
     <g id="text_12">
      <!-- 0.5 -->
      <g transform="translate(31.096875 149.976841)scale(0.1 -0.1)">
       <use xlink:href="#DejaVuSans-48"/>
       <use x="63.623047" xlink:href="#DejaVuSans-46"/>
       <use x="95.410156" xlink:href="#DejaVuSans-53"/>
      </g>
     </g>
    </g>
    <g id="ytick_4">
     <g id="line2d_13">
      <g>
       <use style="stroke:#000000;stroke-width:0.8;" x="54" xlink:href="#m2047f6062e" y="106.23201"/>
      </g>
     </g>
     <g id="text_13">
      <!-- 1.0 -->
      <g transform="translate(31.096875 110.031229)scale(0.1 -0.1)">
       <use xlink:href="#DejaVuSans-49"/>
       <use x="63.623047" xlink:href="#DejaVuSans-46"/>
       <use x="95.410156" xlink:href="#DejaVuSans-48"/>
      </g>
     </g>
    </g>
    <g id="ytick_5">
     <g id="line2d_14">
      <g>
       <use style="stroke:#000000;stroke-width:0.8;" x="54" xlink:href="#m2047f6062e" y="66.286398"/>
      </g>
     </g>
     <g id="text_14">
      <!-- 1.5 -->
      <g transform="translate(31.096875 70.085616)scale(0.1 -0.1)">
       <use xlink:href="#DejaVuSans-49"/>
       <use x="63.623047" xlink:href="#DejaVuSans-46"/>
       <use x="95.410156" xlink:href="#DejaVuSans-53"/>
      </g>
     </g>
    </g>
    <g id="text_15">
     <!-- 1e7 -->
     <defs>
      <path d="M 56.203125 29.59375 
L 56.203125 25.203125 
L 14.890625 25.203125 
Q 15.484375 15.921875 20.484375 11.0625 
Q 25.484375 6.203125 34.421875 6.203125 
Q 39.59375 6.203125 44.453125 7.46875 
Q 49.3125 8.734375 54.109375 11.28125 
L 54.109375 2.78125 
Q 49.265625 0.734375 44.1875 -0.34375 
Q 39.109375 -1.421875 33.890625 -1.421875 
Q 20.796875 -1.421875 13.15625 6.1875 
Q 5.515625 13.8125 5.515625 26.8125 
Q 5.515625 40.234375 12.765625 48.109375 
Q 20.015625 56 32.328125 56 
Q 43.359375 56 49.78125 48.890625 
Q 56.203125 41.796875 56.203125 29.59375 
z
M 47.21875 32.234375 
Q 47.125 39.59375 43.09375 43.984375 
Q 39.0625 48.390625 32.421875 48.390625 
Q 24.90625 48.390625 20.390625 44.140625 
Q 15.875 39.890625 15.1875 32.171875 
z
" id="DejaVuSans-101"/>
     </defs>
     <g transform="translate(54 31.56)scale(0.1 -0.1)">
      <use xlink:href="#DejaVuSans-49"/>
      <use x="63.623047" xlink:href="#DejaVuSans-101"/>
      <use x="125.146484" xlink:href="#DejaVuSans-55"/>
     </g>
    </g>
   </g>
   <g id="line2d_15">
    <path clip-path="url(#p1247623bc0)" d="M 131.980173 159.173378 
L 91.312964 145.212133 
L 102.520463 149.05972 
L 114.848711 153.292066 
L 123.81471 156.370136 
L 130.539209 158.678688 
L 138.864779 161.536896 
L 147.19035 164.395103 
L 141.906815 162.581241 
L 168.964918 171.870416 
L 211.873626 186.601178 
L 134.38178 159.997861 
L 124.295031 156.535033 
L 163.201062 169.891656 
L 222.600803 190.283868 
L 182.253809 176.432555 
L 146.0696 164.010345 
L 141.906815 162.581241 
L 175.369203 174.069037 
L 229.325302 192.592421 
L 289.365473 213.204495 
L 373.581818 242.116364 
L 279.759045 209.906563 
L 207.070413 184.952212 
L 221.159839 189.789179 
L 201.786878 183.138349 
L 198.424628 181.984073 
L 171.046311 172.584967 
L 177.450595 174.783589 
L 214.115126 187.370695 
L 199.865592 182.478763 
L 178.731452 175.223313 
L 132.620602 159.39324 
L 116.449782 153.841722 
L 116.930104 154.006618 
L 156.63667 167.63807 
L 157.116991 167.802966 
L 152.15367 166.099035 
L 157.116991 167.802966 
L 142.227029 162.691172 
L 155.355813 167.198345 
L 163.84149 170.111519 
L 95.795964 146.751168 
L 87.950715 144.057857 
L 84.108144 142.738684 
L 104.601855 149.774272 
L 136.783387 160.822344 
L 152.15367 166.099035 
L 131.179638 158.89855 
L 70.499039 138.066614 
L 69.85861 137.846752 
L 70.819253 138.176545 
L 69.378289 137.681856 
L 70.338932 138.011649 
L 69.218182 137.62689 
L 69.85861 137.846752 
L 73.541074 139.110959 
L 78.504395 140.814891 
L 90.672536 144.992271 
L 106.523141 150.433859 
L 92.914036 145.761789 
L 69.538396 137.736821 
" style="fill:none;stroke:#ff0000;stroke-linecap:square;stroke-width:1.5;"/>
   </g>
   <g id="patch_3">
    <path d="M 54 252 
L 54 34.56 
" style="fill:none;stroke:#000000;stroke-linecap:square;stroke-linejoin:miter;stroke-width:0.8;"/>
   </g>
   <g id="patch_4">
    <path d="M 388.8 252 
L 388.8 34.56 
" style="fill:none;stroke:#000000;stroke-linecap:square;stroke-linejoin:miter;stroke-width:0.8;"/>
   </g>
   <g id="patch_5">
    <path d="M 54 252 
L 388.8 252 
" style="fill:none;stroke:#000000;stroke-linecap:square;stroke-linejoin:miter;stroke-width:0.8;"/>
   </g>
   <g id="patch_6">
    <path d="M 54 34.56 
L 388.8 34.56 
" style="fill:none;stroke:#000000;stroke-linecap:square;stroke-linejoin:miter;stroke-width:0.8;"/>
   </g>
   <g id="text_16">
    <!-- y = -688004.61x + 6118457.11 -->
    <defs>
     <path d="M 32.171875 -5.078125 
Q 28.375 -14.84375 24.75 -17.8125 
Q 21.140625 -20.796875 15.09375 -20.796875 
L 7.90625 -20.796875 
L 7.90625 -13.28125 
L 13.1875 -13.28125 
Q 16.890625 -13.28125 18.9375 -11.515625 
Q 21 -9.765625 23.484375 -3.21875 
L 25.09375 0.875 
L 2.984375 54.6875 
L 12.5 54.6875 
L 29.59375 11.921875 
L 46.6875 54.6875 
L 56.203125 54.6875 
z
" id="DejaVuSans-121"/>
     <path id="DejaVuSans-32"/>
     <path d="M 10.59375 45.40625 
L 73.1875 45.40625 
L 73.1875 37.203125 
L 10.59375 37.203125 
z
M 10.59375 25.484375 
L 73.1875 25.484375 
L 73.1875 17.1875 
L 10.59375 17.1875 
z
" id="DejaVuSans-61"/>
     <path d="M 4.890625 31.390625 
L 31.203125 31.390625 
L 31.203125 23.390625 
L 4.890625 23.390625 
z
" id="DejaVuSans-45"/>
     <path d="M 33.015625 40.375 
Q 26.375 40.375 22.484375 35.828125 
Q 18.609375 31.296875 18.609375 23.390625 
Q 18.609375 15.53125 22.484375 10.953125 
Q 26.375 6.390625 33.015625 6.390625 
Q 39.65625 6.390625 43.53125 10.953125 
Q 47.40625 15.53125 47.40625 23.390625 
Q 47.40625 31.296875 43.53125 35.828125 
Q 39.65625 40.375 33.015625 40.375 
z
M 52.59375 71.296875 
L 52.59375 62.3125 
Q 48.875 64.0625 45.09375 64.984375 
Q 41.3125 65.921875 37.59375 65.921875 
Q 27.828125 65.921875 22.671875 59.328125 
Q 17.53125 52.734375 16.796875 39.40625 
Q 19.671875 43.65625 24.015625 45.921875 
Q 28.375 48.1875 33.59375 48.1875 
Q 44.578125 48.1875 50.953125 41.515625 
Q 57.328125 34.859375 57.328125 23.390625 
Q 57.328125 12.15625 50.6875 5.359375 
Q 44.046875 -1.421875 33.015625 -1.421875 
Q 20.359375 -1.421875 13.671875 8.265625 
Q 6.984375 17.96875 6.984375 36.375 
Q 6.984375 53.65625 15.1875 63.9375 
Q 23.390625 74.21875 37.203125 74.21875 
Q 40.921875 74.21875 44.703125 73.484375 
Q 48.484375 72.75 52.59375 71.296875 
z
" id="DejaVuSans-54"/>
     <path d="M 31.78125 34.625 
Q 24.75 34.625 20.71875 30.859375 
Q 16.703125 27.09375 16.703125 20.515625 
Q 16.703125 13.921875 20.71875 10.15625 
Q 24.75 6.390625 31.78125 6.390625 
Q 38.8125 6.390625 42.859375 10.171875 
Q 46.921875 13.96875 46.921875 20.515625 
Q 46.921875 27.09375 42.890625 30.859375 
Q 38.875 34.625 31.78125 34.625 
z
M 21.921875 38.8125 
Q 15.578125 40.375 12.03125 44.71875 
Q 8.5 49.078125 8.5 55.328125 
Q 8.5 64.0625 14.71875 69.140625 
Q 20.953125 74.21875 31.78125 74.21875 
Q 42.671875 74.21875 48.875 69.140625 
Q 55.078125 64.0625 55.078125 55.328125 
Q 55.078125 49.078125 51.53125 44.71875 
Q 48 40.375 41.703125 38.8125 
Q 48.828125 37.15625 52.796875 32.3125 
Q 56.78125 27.484375 56.78125 20.515625 
Q 56.78125 9.90625 50.3125 4.234375 
Q 43.84375 -1.421875 31.78125 -1.421875 
Q 19.734375 -1.421875 13.25 4.234375 
Q 6.78125 9.90625 6.78125 20.515625 
Q 6.78125 27.484375 10.78125 32.3125 
Q 14.796875 37.15625 21.921875 38.8125 
z
M 18.3125 54.390625 
Q 18.3125 48.734375 21.84375 45.5625 
Q 25.390625 42.390625 31.78125 42.390625 
Q 38.140625 42.390625 41.71875 45.5625 
Q 45.3125 48.734375 45.3125 54.390625 
Q 45.3125 60.0625 41.71875 63.234375 
Q 38.140625 66.40625 31.78125 66.40625 
Q 25.390625 66.40625 21.84375 63.234375 
Q 18.3125 60.0625 18.3125 54.390625 
z
" id="DejaVuSans-56"/>
     <path d="M 37.796875 64.3125 
L 12.890625 25.390625 
L 37.796875 25.390625 
z
M 35.203125 72.90625 
L 47.609375 72.90625 
L 47.609375 25.390625 
L 58.015625 25.390625 
L 58.015625 17.1875 
L 47.609375 17.1875 
L 47.609375 0 
L 37.796875 0 
L 37.796875 17.1875 
L 4.890625 17.1875 
L 4.890625 26.703125 
z
" id="DejaVuSans-52"/>
     <path d="M 54.890625 54.6875 
L 35.109375 28.078125 
L 55.90625 0 
L 45.3125 0 
L 29.390625 21.484375 
L 13.484375 0 
L 2.875 0 
L 24.125 28.609375 
L 4.6875 54.6875 
L 15.28125 54.6875 
L 29.78125 35.203125 
L 44.28125 54.6875 
z
" id="DejaVuSans-120"/>
     <path d="M 46 62.703125 
L 46 35.5 
L 73.1875 35.5 
L 73.1875 27.203125 
L 46 27.203125 
L 46 0 
L 37.796875 0 
L 37.796875 27.203125 
L 10.59375 27.203125 
L 10.59375 35.5 
L 37.796875 35.5 
L 37.796875 62.703125 
z
" id="DejaVuSans-43"/>
    </defs>
    <g style="fill:#ff0000;" transform="translate(132.14028 106.23201)scale(0.15 -0.15)">
     <use xlink:href="#DejaVuSans-121"/>
     <use x="59.179688" xlink:href="#DejaVuSans-32"/>
     <use x="90.966797" xlink:href="#DejaVuSans-61"/>
     <use x="174.755859" xlink:href="#DejaVuSans-32"/>
     <use x="206.542969" xlink:href="#DejaVuSans-45"/>
     <use x="242.626953" xlink:href="#DejaVuSans-54"/>
     <use x="306.25" xlink:href="#DejaVuSans-56"/>
     <use x="369.873047" xlink:href="#DejaVuSans-56"/>
     <use x="433.496094" xlink:href="#DejaVuSans-48"/>
     <use x="497.119141" xlink:href="#DejaVuSans-48"/>
     <use x="560.742188" xlink:href="#DejaVuSans-52"/>
     <use x="624.365234" xlink:href="#DejaVuSans-46"/>
     <use x="656.152344" xlink:href="#DejaVuSans-54"/>
     <use x="719.775391" xlink:href="#DejaVuSans-49"/>
     <use x="783.398438" xlink:href="#DejaVuSans-120"/>
     <use x="842.578125" xlink:href="#DejaVuSans-32"/>
     <use x="874.365234" xlink:href="#DejaVuSans-43"/>
     <use x="958.154297" xlink:href="#DejaVuSans-32"/>
     <use x="989.941406" xlink:href="#DejaVuSans-54"/>
     <use x="1053.564453" xlink:href="#DejaVuSans-49"/>
     <use x="1117.1875" xlink:href="#DejaVuSans-49"/>
     <use x="1180.810547" xlink:href="#DejaVuSans-56"/>
     <use x="1244.433594" xlink:href="#DejaVuSans-52"/>
     <use x="1308.056641" xlink:href="#DejaVuSans-53"/>
     <use x="1371.679688" xlink:href="#DejaVuSans-55"/>
     <use x="1435.302734" xlink:href="#DejaVuSans-46"/>
     <use x="1467.089844" xlink:href="#DejaVuSans-49"/>
     <use x="1530.712891" xlink:href="#DejaVuSans-49"/>
    </g>
   </g>
   <g id="text_17">
    <!-- The r-value is: -0.562088259656488 -->
    <defs>
     <path d="M -0.296875 72.90625 
L 61.375 72.90625 
L 61.375 64.59375 
L 35.5 64.59375 
L 35.5 0 
L 25.59375 0 
L 25.59375 64.59375 
L -0.296875 64.59375 
z
" id="DejaVuSans-84"/>
     <path d="M 54.890625 33.015625 
L 54.890625 0 
L 45.90625 0 
L 45.90625 32.71875 
Q 45.90625 40.484375 42.875 44.328125 
Q 39.84375 48.1875 33.796875 48.1875 
Q 26.515625 48.1875 22.3125 43.546875 
Q 18.109375 38.921875 18.109375 30.90625 
L 18.109375 0 
L 9.078125 0 
L 9.078125 75.984375 
L 18.109375 75.984375 
L 18.109375 46.1875 
Q 21.34375 51.125 25.703125 53.5625 
Q 30.078125 56 35.796875 56 
Q 45.21875 56 50.046875 50.171875 
Q 54.890625 44.34375 54.890625 33.015625 
z
" id="DejaVuSans-104"/>
     <path d="M 41.109375 46.296875 
Q 39.59375 47.171875 37.8125 47.578125 
Q 36.03125 48 33.890625 48 
Q 26.265625 48 22.1875 43.046875 
Q 18.109375 38.09375 18.109375 28.8125 
L 18.109375 0 
L 9.078125 0 
L 9.078125 54.6875 
L 18.109375 54.6875 
L 18.109375 46.1875 
Q 20.953125 51.171875 25.484375 53.578125 
Q 30.03125 56 36.53125 56 
Q 37.453125 56 38.578125 55.875 
Q 39.703125 55.765625 41.0625 55.515625 
z
" id="DejaVuSans-114"/>
     <path d="M 2.984375 54.6875 
L 12.5 54.6875 
L 29.59375 8.796875 
L 46.6875 54.6875 
L 56.203125 54.6875 
L 35.6875 0 
L 23.484375 0 
z
" id="DejaVuSans-118"/>
     <path d="M 34.28125 27.484375 
Q 23.390625 27.484375 19.1875 25 
Q 14.984375 22.515625 14.984375 16.5 
Q 14.984375 11.71875 18.140625 8.90625 
Q 21.296875 6.109375 26.703125 6.109375 
Q 34.1875 6.109375 38.703125 11.40625 
Q 43.21875 16.703125 43.21875 25.484375 
L 43.21875 27.484375 
z
M 52.203125 31.203125 
L 52.203125 0 
L 43.21875 0 
L 43.21875 8.296875 
Q 40.140625 3.328125 35.546875 0.953125 
Q 30.953125 -1.421875 24.3125 -1.421875 
Q 15.921875 -1.421875 10.953125 3.296875 
Q 6 8.015625 6 15.921875 
Q 6 25.140625 12.171875 29.828125 
Q 18.359375 34.515625 30.609375 34.515625 
L 43.21875 34.515625 
L 43.21875 35.40625 
Q 43.21875 41.609375 39.140625 45 
Q 35.0625 48.390625 27.6875 48.390625 
Q 23 48.390625 18.546875 47.265625 
Q 14.109375 46.140625 10.015625 43.890625 
L 10.015625 52.203125 
Q 14.9375 54.109375 19.578125 55.046875 
Q 24.21875 56 28.609375 56 
Q 40.484375 56 46.34375 49.84375 
Q 52.203125 43.703125 52.203125 31.203125 
z
" id="DejaVuSans-97"/>
     <path d="M 9.421875 75.984375 
L 18.40625 75.984375 
L 18.40625 0 
L 9.421875 0 
z
" id="DejaVuSans-108"/>
     <path d="M 8.5 21.578125 
L 8.5 54.6875 
L 17.484375 54.6875 
L 17.484375 21.921875 
Q 17.484375 14.15625 20.5 10.265625 
Q 23.53125 6.390625 29.59375 6.390625 
Q 36.859375 6.390625 41.078125 11.03125 
Q 45.3125 15.671875 45.3125 23.6875 
L 45.3125 54.6875 
L 54.296875 54.6875 
L 54.296875 0 
L 45.3125 0 
L 45.3125 8.40625 
Q 42.046875 3.421875 37.71875 1 
Q 33.40625 -1.421875 27.6875 -1.421875 
Q 18.265625 -1.421875 13.375 4.4375 
Q 8.5 10.296875 8.5 21.578125 
z
M 31.109375 56 
z
" id="DejaVuSans-117"/>
     <path d="M 9.421875 54.6875 
L 18.40625 54.6875 
L 18.40625 0 
L 9.421875 0 
z
M 9.421875 75.984375 
L 18.40625 75.984375 
L 18.40625 64.59375 
L 9.421875 64.59375 
z
" id="DejaVuSans-105"/>
     <path d="M 44.28125 53.078125 
L 44.28125 44.578125 
Q 40.484375 46.53125 36.375 47.5 
Q 32.28125 48.484375 27.875 48.484375 
Q 21.1875 48.484375 17.84375 46.4375 
Q 14.5 44.390625 14.5 40.28125 
Q 14.5 37.15625 16.890625 35.375 
Q 19.28125 33.59375 26.515625 31.984375 
L 29.59375 31.296875 
Q 39.15625 29.25 43.1875 25.515625 
Q 47.21875 21.78125 47.21875 15.09375 
Q 47.21875 7.46875 41.1875 3.015625 
Q 35.15625 -1.421875 24.609375 -1.421875 
Q 20.21875 -1.421875 15.453125 -0.5625 
Q 10.6875 0.296875 5.421875 2 
L 5.421875 11.28125 
Q 10.40625 8.6875 15.234375 7.390625 
Q 20.0625 6.109375 24.8125 6.109375 
Q 31.15625 6.109375 34.5625 8.28125 
Q 37.984375 10.453125 37.984375 14.40625 
Q 37.984375 18.0625 35.515625 20.015625 
Q 33.0625 21.96875 24.703125 23.78125 
L 21.578125 24.515625 
Q 13.234375 26.265625 9.515625 29.90625 
Q 5.8125 33.546875 5.8125 39.890625 
Q 5.8125 47.609375 11.28125 51.796875 
Q 16.75 56 26.8125 56 
Q 31.78125 56 36.171875 55.265625 
Q 40.578125 54.546875 44.28125 53.078125 
z
" id="DejaVuSans-115"/>
     <path d="M 11.71875 12.40625 
L 22.015625 12.40625 
L 22.015625 0 
L 11.71875 0 
z
M 11.71875 51.703125 
L 22.015625 51.703125 
L 22.015625 39.3125 
L 11.71875 39.3125 
z
" id="DejaVuSans-58"/>
     <path d="M 10.984375 1.515625 
L 10.984375 10.5 
Q 14.703125 8.734375 18.5 7.8125 
Q 22.3125 6.890625 25.984375 6.890625 
Q 35.75 6.890625 40.890625 13.453125 
Q 46.046875 20.015625 46.78125 33.40625 
Q 43.953125 29.203125 39.59375 26.953125 
Q 35.25 24.703125 29.984375 24.703125 
Q 19.046875 24.703125 12.671875 31.3125 
Q 6.296875 37.9375 6.296875 49.421875 
Q 6.296875 60.640625 12.9375 67.421875 
Q 19.578125 74.21875 30.609375 74.21875 
Q 43.265625 74.21875 49.921875 64.515625 
Q 56.59375 54.828125 56.59375 36.375 
Q 56.59375 19.140625 48.40625 8.859375 
Q 40.234375 -1.421875 26.421875 -1.421875 
Q 22.703125 -1.421875 18.890625 -0.6875 
Q 15.09375 0.046875 10.984375 1.515625 
z
M 30.609375 32.421875 
Q 37.25 32.421875 41.125 36.953125 
Q 45.015625 41.5 45.015625 49.421875 
Q 45.015625 57.28125 41.125 61.84375 
Q 37.25 66.40625 30.609375 66.40625 
Q 23.96875 66.40625 20.09375 61.84375 
Q 16.21875 57.28125 16.21875 49.421875 
Q 16.21875 41.5 20.09375 36.953125 
Q 23.96875 32.421875 30.609375 32.421875 
z
" id="DejaVuSans-57"/>
    </defs>
    <g transform="translate(148.150992 122.210255)scale(0.1 -0.1)">
     <use xlink:href="#DejaVuSans-84"/>
     <use x="61.083984" xlink:href="#DejaVuSans-104"/>
     <use x="124.462891" xlink:href="#DejaVuSans-101"/>
     <use x="185.986328" xlink:href="#DejaVuSans-32"/>
     <use x="217.773438" xlink:href="#DejaVuSans-114"/>
     <use x="252.511719" xlink:href="#DejaVuSans-45"/>
     <use x="285.970703" xlink:href="#DejaVuSans-118"/>
     <use x="345.150391" xlink:href="#DejaVuSans-97"/>
     <use x="406.429688" xlink:href="#DejaVuSans-108"/>
     <use x="434.212891" xlink:href="#DejaVuSans-117"/>
     <use x="497.591797" xlink:href="#DejaVuSans-101"/>
     <use x="559.115234" xlink:href="#DejaVuSans-32"/>
     <use x="590.902344" xlink:href="#DejaVuSans-105"/>
     <use x="618.685547" xlink:href="#DejaVuSans-115"/>
     <use x="670.785156" xlink:href="#DejaVuSans-58"/>
     <use x="704.476562" xlink:href="#DejaVuSans-32"/>
     <use x="736.263672" xlink:href="#DejaVuSans-45"/>
     <use x="772.347656" xlink:href="#DejaVuSans-48"/>
     <use x="835.970703" xlink:href="#DejaVuSans-46"/>
     <use x="867.757812" xlink:href="#DejaVuSans-53"/>
     <use x="931.380859" xlink:href="#DejaVuSans-54"/>
     <use x="995.003906" xlink:href="#DejaVuSans-50"/>
     <use x="1058.626953" xlink:href="#DejaVuSans-48"/>
     <use x="1122.25" xlink:href="#DejaVuSans-56"/>
     <use x="1185.873047" xlink:href="#DejaVuSans-56"/>
     <use x="1249.496094" xlink:href="#DejaVuSans-50"/>
     <use x="1313.119141" xlink:href="#DejaVuSans-53"/>
     <use x="1376.742188" xlink:href="#DejaVuSans-57"/>
     <use x="1440.365234" xlink:href="#DejaVuSans-54"/>
     <use x="1503.988281" xlink:href="#DejaVuSans-53"/>
     <use x="1567.611328" xlink:href="#DejaVuSans-54"/>
     <use x="1631.234375" xlink:href="#DejaVuSans-52"/>
     <use x="1694.857422" xlink:href="#DejaVuSans-56"/>
     <use x="1758.480469" xlink:href="#DejaVuSans-56"/>
    </g>
   </g>
   <g id="text_18">
    <!-- Federal Interest Rate vs. China GDP -->
    <defs>
     <path d="M 9.8125 72.90625 
L 51.703125 72.90625 
L 51.703125 64.59375 
L 19.671875 64.59375 
L 19.671875 43.109375 
L 48.578125 43.109375 
L 48.578125 34.8125 
L 19.671875 34.8125 
L 19.671875 0 
L 9.8125 0 
z
" id="DejaVuSans-70"/>
     <path d="M 45.40625 46.390625 
L 45.40625 75.984375 
L 54.390625 75.984375 
L 54.390625 0 
L 45.40625 0 
L 45.40625 8.203125 
Q 42.578125 3.328125 38.25 0.953125 
Q 33.9375 -1.421875 27.875 -1.421875 
Q 17.96875 -1.421875 11.734375 6.484375 
Q 5.515625 14.40625 5.515625 27.296875 
Q 5.515625 40.1875 11.734375 48.09375 
Q 17.96875 56 27.875 56 
Q 33.9375 56 38.25 53.625 
Q 42.578125 51.265625 45.40625 46.390625 
z
M 14.796875 27.296875 
Q 14.796875 17.390625 18.875 11.75 
Q 22.953125 6.109375 30.078125 6.109375 
Q 37.203125 6.109375 41.296875 11.75 
Q 45.40625 17.390625 45.40625 27.296875 
Q 45.40625 37.203125 41.296875 42.84375 
Q 37.203125 48.484375 30.078125 48.484375 
Q 22.953125 48.484375 18.875 42.84375 
Q 14.796875 37.203125 14.796875 27.296875 
z
" id="DejaVuSans-100"/>
     <path d="M 9.8125 72.90625 
L 19.671875 72.90625 
L 19.671875 0 
L 9.8125 0 
z
" id="DejaVuSans-73"/>
     <path d="M 54.890625 33.015625 
L 54.890625 0 
L 45.90625 0 
L 45.90625 32.71875 
Q 45.90625 40.484375 42.875 44.328125 
Q 39.84375 48.1875 33.796875 48.1875 
Q 26.515625 48.1875 22.3125 43.546875 
Q 18.109375 38.921875 18.109375 30.90625 
L 18.109375 0 
L 9.078125 0 
L 9.078125 54.6875 
L 18.109375 54.6875 
L 18.109375 46.1875 
Q 21.34375 51.125 25.703125 53.5625 
Q 30.078125 56 35.796875 56 
Q 45.21875 56 50.046875 50.171875 
Q 54.890625 44.34375 54.890625 33.015625 
z
" id="DejaVuSans-110"/>
     <path d="M 18.3125 70.21875 
L 18.3125 54.6875 
L 36.8125 54.6875 
L 36.8125 47.703125 
L 18.3125 47.703125 
L 18.3125 18.015625 
Q 18.3125 11.328125 20.140625 9.421875 
Q 21.96875 7.515625 27.59375 7.515625 
L 36.8125 7.515625 
L 36.8125 0 
L 27.59375 0 
Q 17.1875 0 13.234375 3.875 
Q 9.28125 7.765625 9.28125 18.015625 
L 9.28125 47.703125 
L 2.6875 47.703125 
L 2.6875 54.6875 
L 9.28125 54.6875 
L 9.28125 70.21875 
z
" id="DejaVuSans-116"/>
     <path d="M 44.390625 34.1875 
Q 47.5625 33.109375 50.5625 29.59375 
Q 53.5625 26.078125 56.59375 19.921875 
L 66.609375 0 
L 56 0 
L 46.6875 18.703125 
Q 43.0625 26.03125 39.671875 28.421875 
Q 36.28125 30.8125 30.421875 30.8125 
L 19.671875 30.8125 
L 19.671875 0 
L 9.8125 0 
L 9.8125 72.90625 
L 32.078125 72.90625 
Q 44.578125 72.90625 50.734375 67.671875 
Q 56.890625 62.453125 56.890625 51.90625 
Q 56.890625 45.015625 53.6875 40.46875 
Q 50.484375 35.9375 44.390625 34.1875 
z
M 19.671875 64.796875 
L 19.671875 38.921875 
L 32.078125 38.921875 
Q 39.203125 38.921875 42.84375 42.21875 
Q 46.484375 45.515625 46.484375 51.90625 
Q 46.484375 58.296875 42.84375 61.546875 
Q 39.203125 64.796875 32.078125 64.796875 
z
" id="DejaVuSans-82"/>
     <path d="M 64.40625 67.28125 
L 64.40625 56.890625 
Q 59.421875 61.53125 53.78125 63.8125 
Q 48.140625 66.109375 41.796875 66.109375 
Q 29.296875 66.109375 22.65625 58.46875 
Q 16.015625 50.828125 16.015625 36.375 
Q 16.015625 21.96875 22.65625 14.328125 
Q 29.296875 6.6875 41.796875 6.6875 
Q 48.140625 6.6875 53.78125 8.984375 
Q 59.421875 11.28125 64.40625 15.921875 
L 64.40625 5.609375 
Q 59.234375 2.09375 53.4375 0.328125 
Q 47.65625 -1.421875 41.21875 -1.421875 
Q 24.65625 -1.421875 15.125 8.703125 
Q 5.609375 18.84375 5.609375 36.375 
Q 5.609375 53.953125 15.125 64.078125 
Q 24.65625 74.21875 41.21875 74.21875 
Q 47.75 74.21875 53.53125 72.484375 
Q 59.328125 70.75 64.40625 67.28125 
z
" id="DejaVuSans-67"/>
     <path d="M 59.515625 10.40625 
L 59.515625 29.984375 
L 43.40625 29.984375 
L 43.40625 38.09375 
L 69.28125 38.09375 
L 69.28125 6.78125 
Q 63.578125 2.734375 56.6875 0.65625 
Q 49.8125 -1.421875 42 -1.421875 
Q 24.90625 -1.421875 15.25 8.5625 
Q 5.609375 18.5625 5.609375 36.375 
Q 5.609375 54.25 15.25 64.234375 
Q 24.90625 74.21875 42 74.21875 
Q 49.125 74.21875 55.546875 72.453125 
Q 61.96875 70.703125 67.390625 67.28125 
L 67.390625 56.78125 
Q 61.921875 61.421875 55.765625 63.765625 
Q 49.609375 66.109375 42.828125 66.109375 
Q 29.4375 66.109375 22.71875 58.640625 
Q 16.015625 51.171875 16.015625 36.375 
Q 16.015625 21.625 22.71875 14.15625 
Q 29.4375 6.6875 42.828125 6.6875 
Q 48.046875 6.6875 52.140625 7.59375 
Q 56.25 8.5 59.515625 10.40625 
z
" id="DejaVuSans-71"/>
     <path d="M 19.671875 64.796875 
L 19.671875 8.109375 
L 31.59375 8.109375 
Q 46.6875 8.109375 53.6875 14.9375 
Q 60.6875 21.78125 60.6875 36.53125 
Q 60.6875 51.171875 53.6875 57.984375 
Q 46.6875 64.796875 31.59375 64.796875 
z
M 9.8125 72.90625 
L 30.078125 72.90625 
Q 51.265625 72.90625 61.171875 64.09375 
Q 71.09375 55.28125 71.09375 36.53125 
Q 71.09375 17.671875 61.125 8.828125 
Q 51.171875 0 30.078125 0 
L 9.8125 0 
z
" id="DejaVuSans-68"/>
     <path d="M 19.671875 64.796875 
L 19.671875 37.40625 
L 32.078125 37.40625 
Q 38.96875 37.40625 42.71875 40.96875 
Q 46.484375 44.53125 46.484375 51.125 
Q 46.484375 57.671875 42.71875 61.234375 
Q 38.96875 64.796875 32.078125 64.796875 
z
M 9.8125 72.90625 
L 32.078125 72.90625 
Q 44.34375 72.90625 50.609375 67.359375 
Q 56.890625 61.8125 56.890625 51.125 
Q 56.890625 40.328125 50.609375 34.8125 
Q 44.34375 29.296875 32.078125 29.296875 
L 19.671875 29.296875 
L 19.671875 0 
L 9.8125 0 
z
" id="DejaVuSans-80"/>
    </defs>
    <g transform="translate(87.474609 28.56)scale(0.15 -0.15)">
     <use xlink:href="#DejaVuSans-70"/>
     <use x="52.019531" xlink:href="#DejaVuSans-101"/>
     <use x="113.542969" xlink:href="#DejaVuSans-100"/>
     <use x="177.019531" xlink:href="#DejaVuSans-101"/>
     <use x="238.542969" xlink:href="#DejaVuSans-114"/>
     <use x="279.65625" xlink:href="#DejaVuSans-97"/>
     <use x="340.935547" xlink:href="#DejaVuSans-108"/>
     <use x="368.71875" xlink:href="#DejaVuSans-32"/>
     <use x="400.505859" xlink:href="#DejaVuSans-73"/>
     <use x="429.998047" xlink:href="#DejaVuSans-110"/>
     <use x="493.376953" xlink:href="#DejaVuSans-116"/>
     <use x="532.585938" xlink:href="#DejaVuSans-101"/>
     <use x="594.109375" xlink:href="#DejaVuSans-114"/>
     <use x="632.972656" xlink:href="#DejaVuSans-101"/>
     <use x="694.496094" xlink:href="#DejaVuSans-115"/>
     <use x="746.595703" xlink:href="#DejaVuSans-116"/>
     <use x="785.804688" xlink:href="#DejaVuSans-32"/>
     <use x="817.591797" xlink:href="#DejaVuSans-82"/>
     <use x="884.824219" xlink:href="#DejaVuSans-97"/>
     <use x="946.103516" xlink:href="#DejaVuSans-116"/>
     <use x="985.3125" xlink:href="#DejaVuSans-101"/>
     <use x="1046.835938" xlink:href="#DejaVuSans-32"/>
     <use x="1078.623047" xlink:href="#DejaVuSans-118"/>
     <use x="1137.802734" xlink:href="#DejaVuSans-115"/>
     <use x="1189.902344" xlink:href="#DejaVuSans-46"/>
     <use x="1221.689453" xlink:href="#DejaVuSans-32"/>
     <use x="1253.476562" xlink:href="#DejaVuSans-67"/>
     <use x="1323.300781" xlink:href="#DejaVuSans-104"/>
     <use x="1386.679688" xlink:href="#DejaVuSans-105"/>
     <use x="1414.462891" xlink:href="#DejaVuSans-110"/>
     <use x="1477.841797" xlink:href="#DejaVuSans-97"/>
     <use x="1539.121094" xlink:href="#DejaVuSans-32"/>
     <use x="1570.908203" xlink:href="#DejaVuSans-71"/>
     <use x="1648.398438" xlink:href="#DejaVuSans-68"/>
     <use x="1725.400391" xlink:href="#DejaVuSans-80"/>
    </g>
   </g>
  </g>
 </g>
 <defs>
  <clipPath id="p1247623bc0">
   <rect height="217.44" width="334.8" x="54" y="34.56"/>
  </clipPath>
 </defs>
</svg>
